<?xml version="1.0" encoding="UTF-8"?>
<svg version="1.1" xmlns="http://www.w3.org/2000/svg" width="500" height="500">
<path d="M0 0 C0.63583008 0.25249512 1.27166016 0.50499023 1.92675781 0.76513672 C32.51401836 12.97557113 59.52056453 32.12012746 83 55 C83.51675293 55.49628906 84.03350586 55.99257812 84.56591797 56.50390625 C91.2606737 62.93367492 97.30688219 69.67151621 103 77 C104.09248047 78.40185547 104.09248047 78.40185547 105.20703125 79.83203125 C117.4527507 95.85226318 127.68824246 112.63820871 136 131 C136.680625 132.42119141 136.680625 132.42119141 137.375 133.87109375 C145.49649279 150.95160828 150.64946159 170.2147885 153.64404297 188.85791016 C154.01040694 191.06262725 154.42915492 193.25385609 154.84765625 195.44921875 C162.59549607 239.38022358 156.24368763 287.11155889 139 328 C138.71189453 328.69528809 138.42378906 329.39057617 138.12695312 330.10693359 C131.37061679 346.322855 123.10564173 361.61743874 113 376 C112.11703204 377.28114287 111.2342287 378.56239921 110.3515625 379.84375 C109.44378248 381.14658243 108.53494266 382.44867711 107.625 383.75 C107.19574219 384.37165039 106.76648438 384.99330078 106.32421875 385.63378906 C105.26669019 387.12632338 104.1390827 388.56873624 103 390 C102.34 390 101.68 390 101 390 C100.5359375 390.928125 100.5359375 390.928125 100.0625 391.875 C99.375 393.25 98.6875 394.625 98 396 C97.34 396 96.68 396 96 396 C95.73832031 396.57878906 95.47664063 397.15757812 95.20703125 397.75390625 C90.54746013 406.4246292 81.76008186 413.29856339 74.5234375 419.75 C73.03995756 421.07273134 71.56293856 422.40288792 70.1015625 423.75 C55.85699978 436.68829278 39.03409373 447.16837001 22 456 C20.88238281 456.60199219 19.76476562 457.20398438 18.61328125 457.82421875 C0.25611907 467.5321939 -19.73957207 474.52947005 -40 479 C-40.9394043 479.21027832 -41.87880859 479.42055664 -42.84667969 479.63720703 C-76.92288258 486.81742796 -116.18733068 486.19766275 -150 478 C-151.01030273 477.76474609 -152.02060547 477.52949219 -153.06152344 477.28710938 C-179.95227472 470.91755459 -207.16888714 459.61398296 -230 444 C-230.86882812 443.41992188 -231.73765625 442.83984375 -232.6328125 442.2421875 C-237.70535259 438.78293233 -242.54622142 435.07573443 -247.30297852 431.1953125 C-249.03371231 429.78653561 -250.77159186 428.38646666 -252.51831055 426.99755859 C-259.35103277 421.51991331 -265.68960211 415.6958527 -271.875 409.5 C-272.3497879 409.02566528 -272.82457581 408.55133057 -273.31375122 408.06262207 C-281.71879707 399.63414617 -289.1617103 390.74565172 -296 381 C-296.70125 380.02546875 -297.4025 379.0509375 -298.125 378.046875 C-299.78234029 375.71802614 -301.39892542 373.3677267 -303 371 C-303.50789063 370.26910156 -304.01578125 369.53820312 -304.5390625 368.78515625 C-316.81289795 350.87794504 -326.83472624 329.82371225 -333 309 C-333.24943359 308.16919922 -333.49886719 307.33839844 -333.75585938 306.48242188 C-335.75112081 299.70838614 -337.4520467 292.88927926 -339 286 C-339.21462891 285.06720215 -339.42925781 284.1344043 -339.65039062 283.17333984 C-346.65418587 251.09484592 -346.59515225 211.95312643 -339 180 C-338.62198242 178.40913574 -338.62198242 178.40913574 -338.23632812 176.78613281 C-334.87137888 163.11249615 -330.45047862 149.97181755 -325 137 C-324.48994289 135.74777933 -323.98079855 134.49518641 -323.47265625 133.2421875 C-311.23085638 103.69301539 -291.78695561 76.82185335 -269.375 54.125 C-268.86582031 53.60647461 -268.35664063 53.08794922 -267.83203125 52.55371094 C-264.24656894 49 -264.24656894 49 -262 49 C-262 48.34 -262 47.68 -262 47 C-239.94622115 25.78872506 -207.39826427 4.92266169 -177.7734375 -3.2265625 C-174.94945464 -4.01409575 -172.159962 -4.88974966 -169.36791992 -5.78320312 C-166.5805571 -6.67049762 -163.78480455 -7.52942134 -160.98779297 -8.38574219 C-159.21776614 -8.932707 -157.45408024 -9.50009683 -155.69140625 -10.0703125 C-106.08767374 -24.91053401 -47.40333601 -19.1732552 0 0 Z " fill="#E7E0EE" transform="translate(343,17)"/>
<path d="M0 0 C2.046875 1.93359375 2.046875 1.93359375 3.8125 3.875 C4.59367187 4.69677734 4.59367187 4.69677734 5.390625 5.53515625 C9.04731715 9.64368105 10.8125 12.3762514 10.8125 17.875 C11.76511719 17.24851562 12.71773437 16.62203125 13.69921875 15.9765625 C14.96599584 15.15081151 16.23293132 14.32530348 17.5 13.5 C18.12583984 13.0875 18.75167969 12.675 19.39648438 12.25 C27.14409347 7.2201386 33.48440577 5.77081129 42.8125 6.875 C48.55390128 9.09619842 51.30433892 13.47280691 53.8125 18.875 C57.98079732 35.32588009 52.55176371 52.35708377 44.8125 66.875 C44.07773437 67.885625 43.34296875 68.89625 42.5859375 69.9375 C40.43693038 73.49708888 40.45453636 75.34402066 40.875 79.4375 C40.96910156 80.53191406 41.06320312 81.62632812 41.16015625 82.75390625 C41.63739079 85.90621165 41.63739079 85.90621165 43.359375 88.4140625 C45.12450855 91.40340157 45.12424504 93.250054 45 96.6875 C44.97292969 97.66332031 44.94585937 98.63914062 44.91796875 99.64453125 C44.86576172 100.74861328 44.86576172 100.74861328 44.8125 101.875 C46.25882812 101.82279297 46.25882812 101.82279297 47.734375 101.76953125 C48.99765625 101.74246094 50.2609375 101.71539062 51.5625 101.6875 C52.81546875 101.65269531 54.0684375 101.61789063 55.359375 101.58203125 C59.10044601 101.89942981 60.19220242 102.29764658 62.8125 104.875 C63.33007812 107.13989258 63.33007812 107.13989258 63.34375 109.76953125 C63.34890625 110.72537109 63.3540625 111.68121094 63.359375 112.66601562 C63.34390625 113.66310547 63.3284375 114.66019531 63.3125 115.6875 C63.32796875 116.67298828 63.3434375 117.65847656 63.359375 118.67382812 C63.32771079 124.56733011 62.86706095 128.27787575 58.8125 132.875 C53.65460526 136.875 53.65460526 136.875 49.8125 136.875 C49.83344727 137.4827124 49.85439453 138.0904248 49.87597656 138.71655273 C50.50599759 159.88406309 49.23191864 177.3497539 34.5625 193.8125 C28.80414434 199.11974024 21.62612383 202.875 13.8125 202.875 C13.8125 210.465 13.8125 218.055 13.8125 225.875 C16.4525 225.875 19.0925 225.875 21.8125 225.875 C23.86975217 230.25746576 24.41945721 234.43594358 24.9375 239.1875 C25.02386719 239.92806641 25.11023438 240.66863281 25.19921875 241.43164062 C25.40984705 243.24538435 25.61202986 245.06010543 25.8125 246.875 C26.46992188 247.11992187 27.12734375 247.36484375 27.8046875 247.6171875 C41.97927716 253.18714821 55.63048685 260.43845439 66.8125 270.875 C67.32087402 271.34776367 67.82924805 271.82052734 68.35302734 272.30761719 C76.21847187 279.69400824 83.06759522 287.59937962 89.54785156 296.21337891 C90.7012247 297.72879542 91.89176681 299.21573867 93.0859375 300.69921875 C107.46993307 318.69148624 119.90095474 338.6219514 130.8125 358.875 C131.71162109 360.48955078 131.71162109 360.48955078 132.62890625 362.13671875 C133.92399811 365.13295438 134.54687848 366.6789021 133.8125 369.875 C131.86658459 371.70829008 130.14676552 373.05144268 127.9375 374.5 C127.31254639 374.92531006 126.68759277 375.35062012 126.04370117 375.78881836 C123.98171349 377.1753491 121.90058798 378.52813805 119.8125 379.875 C119.1117334 380.33245605 118.4109668 380.78991211 117.68896484 381.26123047 C93.10947996 397.19455298 65.41903496 408.56287413 36.8125 414.875 C35.40339355 415.19041748 35.40339355 415.19041748 33.96582031 415.51220703 C-0.11038258 422.69242796 -39.37483068 422.07266275 -73.1875 413.875 C-74.19780273 413.63974609 -75.20810547 413.40449219 -76.24902344 413.16210938 C-103.13977472 406.79255459 -130.35638714 395.48898296 -153.1875 379.875 C-154.05632812 379.29492188 -154.92515625 378.71484375 -155.8203125 378.1171875 C-160.89349611 374.65749348 -165.73531297 370.95020153 -170.49194336 367.06835938 C-172.21680026 365.66485295 -173.9496778 364.27111095 -175.69262695 362.89013672 C-182.70565123 357.28260575 -189.11793661 351.24737311 -195.4375 344.875 C-196.38769293 343.93196116 -197.3382132 342.98925203 -198.2890625 342.046875 C-210.60999412 329.69143096 -210.60999412 329.69143096 -213.1875 324.875 C-212.91506025 321.81133791 -211.66479621 319.83665297 -209.8515625 317.40625 C-209.36961426 316.75841553 -208.88766602 316.11058105 -208.39111328 315.44311523 C-207.8701709 314.76063721 -207.34922852 314.07815918 -206.8125 313.375 C-206.27737793 312.66738525 -205.74225586 311.95977051 -205.19091797 311.23071289 C-200.93267699 305.67771109 -196.38454627 300.5060826 -191.58203125 295.421875 C-189.63629182 293.35234465 -187.80067042 291.2563087 -186 289.0625 C-174.93540359 275.98615879 -159.13122933 265.90033612 -144.1875 257.875 C-143.32640625 257.3490625 -142.4653125 256.823125 -141.578125 256.28125 C-139.31275885 254.94868168 -137.13495367 253.94713104 -134.6875 253 C-133.81867188 252.66355469 -132.94984375 252.32710937 -132.0546875 251.98046875 C-131.10851562 251.61566406 -130.16234375 251.25085938 -129.1875 250.875 C-128.15882813 250.45863281 -127.13015625 250.04226563 -126.0703125 249.61328125 C-108.40998515 242.56185558 -91.0435329 240.42365879 -72.1875 240.875 C-71.8575 241.535 -71.5275 242.195 -71.1875 242.875 C-68.66727541 243.79172035 -66.20034462 244.58344921 -63.625 245.3125 C-62.85776611 245.53059326 -62.09053223 245.74868652 -61.30004883 245.97338867 C-46.72029959 250.01608477 -33.27931861 251.29249908 -18.1875 250.875 C-18.1875 249.555 -18.1875 248.235 -18.1875 246.875 C-19.24324219 246.92140625 -20.29898438 246.9678125 -21.38671875 247.015625 C-37.79757862 247.50370823 -53.85533209 244.84280034 -69.1875 238.875 C-69.63269729 230.26785243 -69.15479477 220.24416631 -64.203125 212.953125 C-63.53796875 212.26734375 -62.8728125 211.5815625 -62.1875 210.875 C-61.5275 210.875 -60.8675 210.875 -60.1875 210.875 C-60.11402344 209.54275391 -60.11402344 209.54275391 -60.0390625 208.18359375 C-59.32944678 196.05895274 -58.27972463 183.97055313 -57.1875 171.875 C-58.38632812 171.97941406 -58.38632812 171.97941406 -59.609375 172.0859375 C-69.46089467 172.57157579 -76.6526133 170.44508994 -84.31640625 164.1171875 C-91.01653135 157.19999572 -94.31373433 148.5949195 -94.5 139.0625 C-94.6555909 134.59366613 -94.6555909 134.59366613 -96.734375 130.78125 C-98.8098716 129.0114467 -100.95624866 127.4426966 -103.1875 125.875 C-111.01205571 119.30177016 -117.81723944 110.57572473 -119.8984375 100.3984375 C-120.22211533 93.81698834 -119.03278579 89.21588435 -115.18359375 83.875 C-113.1875 81.875 -113.1875 81.875 -111.43701172 81.0847168 C-109.05780392 79.9084418 -107.79322352 79.01578888 -106.1875 76.875 C-105.20141919 71.48926907 -105.33963326 66.14622359 -105.4375 60.6875 C-105.5637429 45.87985507 -104.72092855 32.87498285 -93.97265625 21.5390625 C-89.39780138 17.32197498 -85.56746488 14.30648488 -79.25 13.5 C-75.20117073 13.99577501 -73.29424126 15.24102371 -70.1875 17.875 C-66.33292125 23.22858159 -65.17611537 28.40997578 -64.1875 34.875 C-63.47787109 33.53308594 -63.47787109 33.53308594 -62.75390625 32.1640625 C-58.40461046 24.13502184 -53.74422855 17.32765349 -47.1875 10.875 C-46.52878906 10.21757813 -45.87007812 9.56015625 -45.19140625 8.8828125 C-34.71404112 -0.94103488 -13.03044711 -9.90401433 0 0 Z " fill="#A37B90" transform="translate(266.1875,81.125)"/>
<path d="M0 0 C2.046875 1.93359375 2.046875 1.93359375 3.8125 3.875 C4.59367187 4.69677734 4.59367187 4.69677734 5.390625 5.53515625 C9.04731715 9.64368105 10.8125 12.3762514 10.8125 17.875 C11.76511719 17.24851562 12.71773437 16.62203125 13.69921875 15.9765625 C14.96599584 15.15081151 16.23293132 14.32530348 17.5 13.5 C18.12583984 13.0875 18.75167969 12.675 19.39648438 12.25 C27.14409347 7.2201386 33.48440577 5.77081129 42.8125 6.875 C48.55390128 9.09619842 51.30433892 13.47280691 53.8125 18.875 C57.98079732 35.32588009 52.55176371 52.35708377 44.8125 66.875 C44.07773437 67.885625 43.34296875 68.89625 42.5859375 69.9375 C40.43693038 73.49708888 40.45453636 75.34402066 40.875 79.4375 C40.96910156 80.53191406 41.06320312 81.62632812 41.16015625 82.75390625 C41.63739079 85.90621165 41.63739079 85.90621165 43.359375 88.4140625 C45.12450855 91.40340157 45.12424504 93.250054 45 96.6875 C44.95939453 98.15123047 44.95939453 98.15123047 44.91796875 99.64453125 C44.88316406 100.38058594 44.84835937 101.11664063 44.8125 101.875 C46.25882812 101.82279297 46.25882812 101.82279297 47.734375 101.76953125 C48.99765625 101.74246094 50.2609375 101.71539062 51.5625 101.6875 C52.81546875 101.65269531 54.0684375 101.61789063 55.359375 101.58203125 C59.10044601 101.89942981 60.19220242 102.29764658 62.8125 104.875 C63.33007812 107.13989258 63.33007812 107.13989258 63.34375 109.76953125 C63.35148437 111.20329102 63.35148437 111.20329102 63.359375 112.66601562 C63.34390625 113.66310547 63.3284375 114.66019531 63.3125 115.6875 C63.33570313 117.16573242 63.33570313 117.16573242 63.359375 118.67382812 C63.32771079 124.56733011 62.86706095 128.27787575 58.8125 132.875 C53.65460526 136.875 53.65460526 136.875 49.8125 136.875 C49.83344727 137.4827124 49.85439453 138.0904248 49.87597656 138.71655273 C50.50599759 159.88406309 49.23191864 177.3497539 34.5625 193.8125 C28.80414434 199.11974024 21.62612383 202.875 13.8125 202.875 C13.8125 210.795 13.8125 218.715 13.8125 226.875 C-9.85020181 227.15669883 -28.16257271 225.54554492 -49.38867188 214.74951172 C-51.60189833 213.67353762 -53.8399554 212.85860769 -56.1875 212.125 C-57.3321875 211.76148438 -57.3321875 211.76148438 -58.5 211.390625 C-59.056875 211.22046875 -59.61375 211.0503125 -60.1875 210.875 C-59.46908937 197.84908103 -58.36066902 184.86695035 -57.1875 171.875 C-58.38632813 171.97941406 -58.38632813 171.97941406 -59.609375 172.0859375 C-69.46089467 172.57157579 -76.6526133 170.44508994 -84.31640625 164.1171875 C-91.01653135 157.19999572 -94.31373433 148.5949195 -94.5 139.0625 C-94.6555909 134.59366613 -94.6555909 134.59366613 -96.734375 130.78125 C-98.8098716 129.0114467 -100.95624866 127.4426966 -103.1875 125.875 C-111.01205571 119.30177016 -117.81723944 110.57572473 -119.8984375 100.3984375 C-120.22211533 93.81698834 -119.03278579 89.21588435 -115.18359375 83.875 C-113.1875 81.875 -113.1875 81.875 -111.43701172 81.0847168 C-109.05780392 79.9084418 -107.79322352 79.01578888 -106.1875 76.875 C-105.20141919 71.48926907 -105.33963326 66.14622359 -105.4375 60.6875 C-105.5637429 45.87985507 -104.72092855 32.87498285 -93.97265625 21.5390625 C-89.39780138 17.32197498 -85.56746488 14.30648488 -79.25 13.5 C-75.20117073 13.99577501 -73.29424126 15.24102371 -70.1875 17.875 C-66.33292125 23.22858159 -65.17611537 28.40997578 -64.1875 34.875 C-63.71441406 33.98039062 -63.24132812 33.08578125 -62.75390625 32.1640625 C-58.40461046 24.13502184 -53.74422855 17.32765349 -47.1875 10.875 C-46.52878906 10.21757813 -45.87007813 9.56015625 -45.19140625 8.8828125 C-34.71404112 -0.94103488 -13.03044711 -9.90401433 0 0 Z " fill="#F18362" transform="translate(266.1875,81.125)"/>
<path d="M0 0 C2.046875 1.93359375 2.046875 1.93359375 3.8125 3.875 C4.59367187 4.69677734 4.59367187 4.69677734 5.390625 5.53515625 C9.04731715 9.64368105 10.8125 12.3762514 10.8125 17.875 C11.76511719 17.24851562 12.71773437 16.62203125 13.69921875 15.9765625 C14.96599584 15.15081151 16.23293132 14.32530348 17.5 13.5 C18.12583984 13.0875 18.75167969 12.675 19.39648438 12.25 C27.14409347 7.2201386 33.48440577 5.77081129 42.8125 6.875 C48.55390128 9.09619842 51.30433892 13.47280691 53.8125 18.875 C58.08578649 35.74023736 52.38058355 54.03723544 43.76904297 68.64501953 C41.16279612 72.69985194 41.16279612 72.69985194 38.8125 73.875 C37.1625 70.575 35.5125 67.275 33.8125 63.875 C29.93460421 65.587154 29.93460421 65.587154 27.6875 67.8125 C19.75735359 73.50151807 10.25847611 73.68244292 0.8125 72.875 C-5.56072024 71.66239615 -10.13548466 68.85211846 -15.1875 64.875 C-15.31705078 66.1125 -15.31705078 66.1125 -15.44921875 67.375 C-17.10950906 81.02289099 -20.09601453 96.78351453 -30.1875 106.875 C-32.15063477 106.86254883 -32.15063477 106.86254883 -34.56640625 106.51953125 C-40.43074003 105.80873482 -46.22124664 105.61894124 -52.125 105.5625 C-53.13240234 105.53349609 -54.13980469 105.50449219 -55.17773438 105.47460938 C-61.76971328 105.41949958 -66.91400605 106.48429141 -73.01000977 109.01098633 C-75.1875 109.875 -75.1875 109.875 -77.1875 109.875 C-77.6825 111.36 -77.6825 111.36 -78.1875 112.875 C-79.239375 113.431875 -80.29125 113.98875 -81.375 114.5625 C-88.58748643 118.45753888 -91.77213356 125.36052663 -94.1875 132.875 C-105.35494792 126.77067289 -114.56067769 115.6642478 -119.1875 103.875 C-120.5241462 97.221806 -120.1961758 91.73017984 -116.625 85.875 C-115.08535528 83.7386908 -113.86424899 82.1805281 -111.43701172 81.0847168 C-109.05780392 79.9084418 -107.79322352 79.01578888 -106.1875 76.875 C-105.20141919 71.48926907 -105.33963326 66.14622359 -105.4375 60.6875 C-105.5637429 45.87985507 -104.72092855 32.87498285 -93.97265625 21.5390625 C-89.39780138 17.32197498 -85.56746488 14.30648488 -79.25 13.5 C-75.20117073 13.99577501 -73.29424126 15.24102371 -70.1875 17.875 C-66.33292125 23.22858159 -65.17611537 28.40997578 -64.1875 34.875 C-63.71441406 33.98039062 -63.24132812 33.08578125 -62.75390625 32.1640625 C-58.40461046 24.13502184 -53.74422855 17.32765349 -47.1875 10.875 C-46.52878906 10.21757813 -45.87007813 9.56015625 -45.19140625 8.8828125 C-34.71404112 -0.94103488 -13.03044711 -9.90401433 0 0 Z " fill="#020101" transform="translate(266.1875,81.125)"/>
<path d="M0 0 C3.28763032 1.35211518 4.63018466 2.43223786 6.0625 5.6875 C8.36119703 11.20437287 9.29197172 16.98046909 10.2890625 22.83984375 C10.72172935 26.07817373 10.72172935 26.07817373 13 28 C13.1953125 30.6015625 13.1953125 30.6015625 13.125 33.625 C13.10695313 34.62789062 13.08890625 35.63078125 13.0703125 36.6640625 C13.04710937 37.43492187 13.02390625 38.20578125 13 39 C14.44632813 38.94779297 14.44632813 38.94779297 15.921875 38.89453125 C17.18515625 38.86746094 18.4484375 38.84039062 19.75 38.8125 C21.00296875 38.77769531 22.2559375 38.74289063 23.546875 38.70703125 C27.28794601 39.02442981 28.37970242 39.42264658 31 42 C31.51757812 44.26489258 31.51757812 44.26489258 31.53125 46.89453125 C31.53898437 48.32829102 31.53898437 48.32829102 31.546875 49.79101562 C31.53140625 50.78810547 31.5159375 51.78519531 31.5 52.8125 C31.52320313 54.29073242 31.52320313 54.29073242 31.546875 55.79882812 C31.5153309 61.66997386 31.13668425 65.49790865 27 70 C22.10256616 74.2772348 18.15241467 74.62236091 11.9375 74.5 C10.75317383 74.52320313 10.75317383 74.52320313 9.54492188 74.546875 C5.41924374 74.51920909 3.46864112 74.31123038 -0.05859375 71.96875 C-0.69925781 71.3190625 -1.33992188 70.669375 -2 70 C-2.36351562 71.26457031 -2.36351562 71.26457031 -2.734375 72.5546875 C-3.06953125 73.65039062 -3.4046875 74.74609375 -3.75 75.875 C-4.07484375 76.96554688 -4.3996875 78.05609375 -4.734375 79.1796875 C-6 82 -6 82 -8.140625 83.3828125 C-8.75421875 83.58648437 -9.3678125 83.79015625 -10 84 C-10.33 83.67 -10.66 83.34 -11 83 C-10.76574203 81.35593498 -10.5271094 79.71237607 -10.26660156 78.07226562 C-9.80331151 74.47116128 -9.85601851 70.87546373 -9.875 67.25 C-9.87113281 66.49589844 -9.86726563 65.74179688 -9.86328125 64.96484375 C-9.86904833 61.71797795 -9.96629022 59.10112935 -11 56 C-12.65 56 -14.3 56 -16 56 C-15.87625 57.175625 -15.7525 58.35125 -15.625 59.5625 C-15.625 64.06032589 -17.20033469 66.25434899 -20.1015625 69.5546875 C-25.17434491 73.41668234 -30.85375424 73.31058502 -36.9375 73.25 C-38.09668945 73.26160156 -38.09668945 73.26160156 -39.27929688 73.2734375 C-44.68538693 73.25515824 -50.31659868 73.10580821 -54.7421875 69.6328125 C-58.36238977 64.81419845 -59.14055239 61.68198158 -59.0625 55.75 C-59.05347656 54.85796875 -59.04445312 53.9659375 -59.03515625 53.046875 C-59.02355469 52.37140625 -59.01195312 51.6959375 -59 51 C-66.69630384 49.6984192 -71.36522309 49.87034481 -78 54 C-81.88171248 55.89572005 -83.85887068 56.34827466 -88 55 C-89.29703814 54.32268833 -90.58825874 53.63417494 -91.875 52.9375 C-97.28627335 50.12486074 -102.17489931 50.58785438 -108 52 C-108.66 51.01 -109.32 50.02 -110 49 C-105.76927134 44.15559465 -99.24986255 42.36416749 -93.01513672 41.66552734 C-89.97933801 41.57275167 -86.97328277 41.60009742 -83.9375 41.6875 C-82.92623047 41.69716797 -81.91496094 41.70683594 -80.87304688 41.71679688 C-74.53861163 41.81061015 -68.29064866 42.26069023 -62 43 C-52.90383121 30.48163135 -49.52753127 16.27531268 -48 1 C-47.35933594 1.40992188 -46.71867187 1.81984375 -46.05859375 2.2421875 C-35.66026835 8.71983283 -26.3479309 10.50732219 -14.1171875 8.53515625 C-8.22186324 7.01174677 -4.23563703 4.33381405 0 0 Z " fill="#6E75A4" transform="translate(298,144)"/>
<path d="M0 0 C3.28763032 1.35211518 4.63018466 2.43223786 6.0625 5.6875 C8.36119703 11.20437287 9.29197172 16.98046909 10.2890625 22.83984375 C10.72172935 26.07817373 10.72172935 26.07817373 13 28 C13.1953125 30.6015625 13.1953125 30.6015625 13.125 33.625 C13.10695313 34.62789062 13.08890625 35.63078125 13.0703125 36.6640625 C13.04710937 37.43492187 13.02390625 38.20578125 13 39 C11.95199219 39.03738281 10.90398437 39.07476562 9.82421875 39.11328125 C8.44527695 39.17894515 7.06637229 39.24539235 5.6875 39.3125 C4.65206055 39.34633789 4.65206055 39.34633789 3.59570312 39.38085938 C0.68971363 39.53528394 -1.49243193 39.65616356 -3.9375 41.3125 C-5.64180223 44.01933295 -5.70458144 46.86856332 -6 50 C-8.97 50 -11.94 50 -15 50 C-15.0825 48.9275 -15.165 47.855 -15.25 46.75 C-16.09347603 42.53261986 -16.59810085 41.50662681 -20 39 C-22.76927982 38.57785369 -25.13644306 38.39154383 -27.90625 38.3984375 C-29.04882263 38.38558212 -29.04882263 38.38558212 -30.21447754 38.37246704 C-31.82149283 38.36100482 -33.42861186 38.3599622 -35.03564453 38.36865234 C-37.49300942 38.37498199 -39.94557312 38.32802418 -42.40234375 38.27734375 C-43.96613977 38.27279806 -45.52994871 38.27139064 -47.09375 38.2734375 C-47.82613892 38.25501801 -48.55852783 38.23659851 -49.31311035 38.21762085 C-51.66955734 38.19620338 -51.66955734 38.19620338 -55 39 C-57.3327166 41.9454263 -57.3327166 41.9454263 -59 45 C-59.99 45 -60.98 45 -62 45 C-60.82694165 42.62470275 -59.61721538 40.27593752 -58.37890625 37.93359375 C-52.08662378 25.82264148 -49.5487346 14.5013216 -48 1 C-47.35933594 1.40992188 -46.71867188 1.81984375 -46.05859375 2.2421875 C-35.66026835 8.71983283 -26.3479309 10.50732219 -14.1171875 8.53515625 C-8.22186324 7.01174677 -4.23563703 4.33381405 0 0 Z " fill="#EC8060" transform="translate(298,144)"/>
<path d="M0 0 C4.62 0 9.24 0 14 0 C14.99 4.62 15.98 9.24 17 14 C18.32 14 19.64 14 21 14 C20.67 9.38 20.34 4.76 20 0 C28.49609375 -0.09765625 28.49609375 -0.09765625 31 0 C32.89128342 1.89128342 32.2366852 4.57067726 32.328125 7.08984375 C32.21984375 7.72019531 32.1115625 8.35054687 32 9 C31.01 9.66 30.02 10.32 29 11 C29 11.99 29 12.98 29 14 C29.99 14.33 30.98 14.66 32 15 C31.52048204 19.31566167 30.29764982 21.2019941 27 24 C23.37085054 25.81457473 19.18458613 25.35581184 15.1875 25.4375 C14.28451172 25.48326172 13.38152344 25.52902344 12.45117188 25.57617188 C7.78041299 25.65510461 5.6717609 25.51939408 1.8828125 22.58984375 C-0.91379429 18.41870688 -0.54949162 13.96692112 -0.3125 9.125 C-0.28994141 8.24585938 -0.26738281 7.36671875 -0.24414062 6.4609375 C-0.18559748 4.30654993 -0.09592783 2.1530469 0 0 Z " fill="#EE8263" transform="translate(245,187)"/>
<path d="M0 0 C2.86067841 1.36314206 5.42395315 2.93964229 8.0625 4.6875 C19.97386679 11.92704329 33.49569469 15.8972868 47.3125 16.5625 C48.56643555 16.62727539 48.56643555 16.62727539 49.84570312 16.69335938 C51.89696935 16.79885307 53.9484648 16.89987315 56 17 C56.495 25.415 56.495 25.415 57 34 C37.80804258 33.30211064 18.86620248 22.78933808 6 9 C3.77618203 6.10861941 1.78899909 3.17782733 0 0 Z " fill="#0C0605" transform="translate(223,267)"/>
<path d="M0 0 C0.99 0 1.98 0 3 0 C3.99 4.29 4.98 8.58 6 13 C6.99 13 7.98 13 9 13 C9.09170703 8.41464864 8.76414889 4.58489331 8 0 C13.94 0 19.88 0 26 0 C26.13530844 3.06398451 26.2342407 6.12197126 26.3125 9.1875 C26.35439453 10.05181641 26.39628906 10.91613281 26.43945312 11.80664062 C26.52644245 16.34748338 26.50731098 18.33633187 23.66796875 22.05078125 C19.66011197 24.97892258 16.48770793 25.23034278 11.625 25.375 C10.50351562 25.42398438 9.38203125 25.47296875 8.2265625 25.5234375 C5 25 5 25 2.10546875 23.12109375 C-0.91403878 18.64505197 -0.55436202 14.95265022 -0.3125 9.6875 C-0.28994141 8.75615234 -0.26738281 7.82480469 -0.24414062 6.86523438 C-0.18542078 4.5751604 -0.10336858 2.28842125 0 0 Z " fill="#EB8264" transform="translate(298,188)"/>
<path d="M0 0 C0.59683594 0.17015625 1.19367188 0.3403125 1.80859375 0.515625 C7.76021754 2.17818855 13.73887768 3.6954978 19.75 5.125 C20.45825928 5.29547852 21.16651855 5.46595703 21.89624023 5.64160156 C29.46105283 7.42114125 36.67788706 8.14378523 44.4375 8.0625 C45.67790039 8.05573242 45.67790039 8.05573242 46.94335938 8.04882812 C48.96227146 8.03715811 50.98114574 8.01922718 53 8 C53.38218767 9.65614657 53.71395102 11.32457024 54 13 C51.59849742 15.40150258 45.10753438 14.37082992 41.77001953 14.39160156 C34.45960981 14.28696662 27.52244954 13.24749704 20.375 11.75 C18.90244751 11.44328369 18.90244751 11.44328369 17.40014648 11.13037109 C10.98087569 9.68885446 5.02932592 7.6251695 -1 5 C-0.67 3.35 -0.34 1.7 0 0 Z " fill="#FAF7F9" transform="translate(195,319)"/>
<path d="M0 0 C4.43720925 0.51503322 6.65504038 2.03615545 10 4.9375 C11.41732422 6.14019531 11.41732422 6.14019531 12.86328125 7.3671875 C13.36553223 7.79354492 13.8677832 8.21990234 14.38525391 8.65917969 C17.25541785 11.04244857 20.22246887 13.29917659 23.1875 15.5625 C23.76435547 16.00392334 24.34121094 16.44534668 24.93554688 16.90014648 C26.28921838 17.93493213 27.64443229 18.96769963 29 20 C28.67 21.65 28.34 23.3 28 25 C24.67747217 24.6166314 23.68969373 23.71667689 21.125 21.375 C18.26415596 18.71760984 18.26415596 18.71760984 15.0625 18.9375 C12.53808587 19.81331715 10.69352549 20.70497817 8.4375 22.0625 C5.11384184 23.9358346 3.69510562 24.44789159 0 24 C0.21484375 21.67578125 0.21484375 21.67578125 1 19 C3.06640625 17.41796875 3.06640625 17.41796875 5.5625 16.1875 C6.38878906 15.76855469 7.21507812 15.34960938 8.06640625 14.91796875 C8.70449219 14.61503906 9.34257812 14.31210938 10 14 C7.49569968 11.42414824 5.12118543 9.08617631 2.1875 7 C0 5 0 5 -0.3125 2.25 C-0.209375 1.5075 -0.10625 0.765 0 0 Z " fill="#120907" transform="translate(182,205)"/>
<path d="M0 0 C3.63 0 7.26 0 11 0 C11.13530844 3.06398451 11.2342407 6.12197126 11.3125 9.1875 C11.3753418 10.48397461 11.3753418 10.48397461 11.43945312 11.80664062 C11.5268099 16.36666415 11.48309788 18.35506028 8.66796875 22.11328125 C6 24 6 24 3 24 C2.49357075 20.93852743 1.99600678 17.87567701 1.5 14.8125 C1.35691406 13.94818359 1.21382813 13.08386719 1.06640625 12.19335938 C0.93105469 11.35224609 0.79570312 10.51113281 0.65625 9.64453125 C0.53056641 8.87471924 0.40488281 8.10490723 0.27539062 7.31176758 C0 5 0 5 0 0 Z " fill="#E2DBEA" transform="translate(313,188)"/>
<path d="M0 0 C1.04220703 -0.00580078 1.04220703 -0.00580078 2.10546875 -0.01171875 C6.21687906 -0.00397598 10.0924223 0.32859751 14.125 1.125 C10.60435514 5.60582073 5.55144051 7.76211895 0.125 9.125 C-3.7511932 8.7593214 -6.75614236 7.34680597 -10.1875 5.5625 C-11.07050781 5.10746094 -11.95351562 4.65242187 -12.86328125 4.18359375 C-13.52714844 3.83425781 -14.19101563 3.48492187 -14.875 3.125 C-9.99800061 -0.12633292 -5.75365568 -0.0316715 0 0 Z " fill="#0D090A" transform="translate(214.875,190.875)"/>
<path d="M0 0 C1.32 0 2.64 0 4 0 C5.3540932 1.98600337 6.68457624 3.98817543 8 6 C12.23877149 9.48521211 15.55200186 10.56416015 21 11 C21.33 12.65 21.66 14.3 22 16 C15.64330373 16.58617076 11.04989512 16.34311602 5.765625 12.5625 C2.80823208 9.94533812 0.94923548 7.45832101 -1 4 C-0.62109375 1.78515625 -0.62109375 1.78515625 0 0 Z " fill="#110907" transform="translate(258,232)"/>
<path d="M0 0 C0 1.65 0 3.3 0 5 C-1.66611905 5.042721 -3.33382885 5.04063832 -5 5 C-5.33 4.67 -5.66 4.34 -6 4 C-11.24932383 3.58828833 -14.48037488 4.30974695 -19 7 C-19.33 7.33 -19.66 7.66 -20 8 C-21.66617115 8.04063832 -23.33388095 8.042721 -25 8 C-24.70902736 4.50832834 -24.24460417 3.23799325 -21.6875 0.75 C-15.16255997 -3.49879816 -7.00429652 -2.87355754 0 0 Z " fill="#120A07" transform="translate(275,170)"/>
<path d="M0 0 C1.65 0 3.3 0 5 0 C5.13277344 0.62648437 5.26554687 1.25296875 5.40234375 1.8984375 C5.57894531 2.71570313 5.75554687 3.53296875 5.9375 4.375 C6.19853516 5.59316406 6.19853516 5.59316406 6.46484375 6.8359375 C6.92330693 9.029463 6.92330693 9.029463 8 11 C8.64047462 17.27665128 6.77302561 21.54060583 4 27 C2.68 27 1.36 27 0 27 C0.24363281 25.53820312 0.24363281 25.53820312 0.4921875 24.046875 C1.10125121 19.77266816 1.14757039 15.56094424 1.125 11.25 C1.12886719 10.49589844 1.13273437 9.74179688 1.13671875 8.96484375 C1.13095167 5.71797795 1.03370978 3.10112935 0 0 Z " fill="#110A08" transform="translate(287,200)"/>
<path d="M0 0 C3.35537627 1.34215051 5.45789202 2.45789202 8 5 C7.625 7.125 7.625 7.125 7 9 C4.49100426 8.58183404 2.38956092 8.21789001 0.15625 6.96875 C-2.4671924 5.79010196 -4.38805377 5.79968563 -7.25 5.875 C-8.58804687 5.90207031 -8.58804687 5.90207031 -9.953125 5.9296875 C-10.62859375 5.95289063 -11.3040625 5.97609375 -12 6 C-12.33 4.68 -12.66 3.36 -13 2 C-8.65883593 -0.46523118 -4.89676976 -0.56860238 0 0 Z " fill="#140C0A" transform="translate(303,167)"/>
<path d="M0 0 C1.98 0 3.96 0 6 0 C6.36644578 1.55966592 6.71760862 3.12292651 7.0625 4.6875 C7.25972656 5.55761719 7.45695312 6.42773438 7.66015625 7.32421875 C8.02032279 10.16001276 7.70909969 12.24789982 7 15 C5.35 14.67 3.7 14.34 2 14 C1.66179834 12.4176994 1.32964061 10.83410625 1 9.25 C0.814375 8.36828125 0.62875 7.4865625 0.4375 6.578125 C0 4 0 4 0 0 Z " fill="#1E110E" transform="translate(259,187)"/>
<path d="M0 0 C1.65 0 3.3 0 5 0 C6.75747614 4.50353262 7.19294408 8.17639811 7 13 C5.68 13.33 4.36 13.66 3 14 C-0.44419134 4.58997722 -0.44419134 4.58997722 0 0 Z " fill="#140B0A" transform="translate(301,188)"/>
<path d="M0 0 C1.65 0 3.3 0 5 0 C5.66 3.63 6.32 7.26 7 11 C6.01 10.67 5.02 10.34 4 10 C3.67 11.65 3.34 13.3 3 15 C2.67 15 2.34 15 2 15 C1.93941406 14.16855469 1.87882812 13.33710938 1.81640625 12.48046875 C1.73261719 11.39378906 1.64882813 10.30710938 1.5625 9.1875 C1.48128906 8.10855469 1.40007812 7.02960938 1.31640625 5.91796875 C1.09787539 2.94010095 1.09787539 2.94010095 0 0 Z " fill="#36221F" transform="translate(287,200)"/>
<path d="M0 0 C1.65 0 3.3 0 5 0 C4.67 2.31 4.34 4.62 4 7 C0 2.25 0 2.25 0 0 Z " fill="#0E0B0E" transform="translate(287,200)"/>
<path d="M0 0 C0.66 0.99 1.32 1.98 2 3 C0.1875 6 0.1875 6 -2 9 C-2.99 9 -3.98 9 -5 9 C-3.50163895 5.88801935 -1.80066242 2.9465385 0 0 Z " fill="#C8715C" transform="translate(241,180)"/>
</svg>
