<?xml version="1.0" encoding="UTF-8"?>
<svg version="1.1" xmlns="http://www.w3.org/2000/svg" width="500" height="500">
<path d="M0 0 C3.09329934 0.00314803 6.18562737 -0.02034868 9.27880859 -0.0456543 C27.17190994 -0.10346837 44.67724669 1.67071281 62.05615234 6.06567383 C63.09441162 6.32388916 64.1326709 6.58210449 65.20239258 6.84814453 C117.83326939 20.26606449 167.19082789 50.98187815 200.49365234 94.31567383 C200.91469238 94.86030273 201.33573242 95.40493164 201.76953125 95.96606445 C232.10869036 135.4435245 253.35360687 185.34183127 253.73193359 235.65551758 C253.74177277 236.72706589 253.75161194 237.7986142 253.76174927 238.90263367 C254.08576899 283.29955932 254.08576899 283.29955932 249.49365234 302.31567383 C249.12361084 303.90774658 249.12361084 303.90774658 248.74609375 305.53198242 C237.90875199 351.28299489 215.81079057 391.28145577 183.49365234 425.31567383 C182.73544189 426.11690674 182.73544189 426.11690674 181.96191406 426.93432617 C174.5830076 434.67677091 166.85443114 441.57457079 158.28515625 447.97290039 C156.49089021 449.31774411 154.71646797 450.68591623 152.94287109 452.05786133 C123.51198521 474.54603587 88.21006993 489.24019936 52.05615234 496.62817383 C51.3375 496.77544922 50.61884766 496.92272461 49.87841797 497.07446289 C34.54785124 499.98904526 19.37533407 500.69034218 3.80615234 500.62817383 C2.83332306 500.62601868 1.86049377 500.62386353 0.85818481 500.62164307 C-13.15156234 500.57183089 -26.74957398 500.1692697 -40.50634766 497.31567383 C-42.07860107 497.00968262 -42.07860107 497.00968262 -43.68261719 496.69750977 C-78.65489202 489.83980952 -112.51819681 476.32061306 -141.50634766 455.31567383 C-142.06757324 454.90994141 -142.62879883 454.50420898 -143.20703125 454.08618164 C-150.43755878 448.80515342 -157.15122471 443.08835028 -163.67431641 436.96020508 C-166.24104462 434.56341198 -168.86041985 432.24900319 -171.50634766 429.94067383 C-182.95497375 419.60586941 -192.44371415 407.75051889 -201.50634766 395.31567383 C-201.94156738 394.72657227 -202.37678711 394.1374707 -202.82519531 393.53051758 C-229.18828082 357.50201229 -246.39342573 309.12371102 -246.74462891 264.41333008 C-246.75442276 263.38612854 -246.76421661 262.358927 -246.77430725 261.30059814 C-247.09611107 218.83691246 -247.09611107 218.83691246 -242.50634766 199.31567383 C-242.28672363 198.3432373 -242.06709961 197.37080078 -241.84082031 196.36889648 C-240.28863456 189.61419714 -238.49883984 182.95327696 -236.50634766 176.31567383 C-236.25546387 175.47907227 -236.00458008 174.6424707 -235.74609375 173.78051758 C-231.17716222 158.94838486 -224.54893399 145.11549826 -217.50634766 131.31567383 C-217.10657715 130.53144043 -216.70680664 129.74720703 -216.29492188 128.93920898 C-205.32413898 107.73937089 -189.76012054 89.61725282 -173.50634766 72.31567383 C-172.89275391 71.65954102 -172.27916016 71.0034082 -171.64697266 70.32739258 C-167.51973185 66.05275032 -162.99491979 62.33434704 -158.36181641 58.62036133 C-156.57049192 57.17455908 -154.7986456 55.70391224 -153.05712891 54.19848633 C-122.77925369 28.24602185 -84.33635321 12.43330238 -45.69384766 4.06567383 C-45.00274902 3.91453125 -44.31165039 3.76338867 -43.59960938 3.60766602 C-29.07203748 0.63298871 -14.78590901 -0.03132116 0 0 Z " fill="#507849" transform="translate(246.50634765625,-0.315673828125)"/>
<path d="M0 0 C3.09329934 0.00314803 6.18562737 -0.02034868 9.27880859 -0.0456543 C27.17190994 -0.10346837 44.67724669 1.67071281 62.05615234 6.06567383 C63.09441162 6.32388916 64.1326709 6.58210449 65.20239258 6.84814453 C117.83326939 20.26606449 167.19082789 50.98187815 200.49365234 94.31567383 C200.91469238 94.86030273 201.33573242 95.40493164 201.76953125 95.96606445 C232.10869036 135.4435245 253.35360687 185.34183127 253.73193359 235.65551758 C253.74177277 236.72706589 253.75161194 237.7986142 253.76174927 238.90263367 C254.08576899 283.29955932 254.08576899 283.29955932 249.49365234 302.31567383 C249.12361084 303.90774658 249.12361084 303.90774658 248.74609375 305.53198242 C240.96283943 338.38983385 227.44102008 368.71841847 207.99365234 396.31567383 C207.584375 396.89760498 207.17509766 397.47953613 206.75341797 398.07910156 C204.80818384 400.76764647 203.29231399 402.4498994 200.49365234 404.31567383 C200.07857422 403.46231445 199.66349609 402.60895508 199.23583984 401.72973633 C187.15655678 377.11177912 174.39484958 352.53319917 156.85668945 331.29052734 C155.43414743 329.22945938 154.79512813 327.79422636 154.49365234 325.31567383 C155.71630859 322.93286133 155.71630859 322.93286133 157.55615234 320.19067383 C168.58161757 302.29362607 171.7260658 279.87875398 166.99365234 259.44067383 C162.73670693 242.82183024 154.22170964 228.78555534 141.49365234 217.31567383 C140.83365234 216.98567383 140.17365234 216.65567383 139.49365234 216.31567383 C139.47177856 215.38839478 139.47177856 215.38839478 139.44946289 214.44238281 C138.80125732 189.76247104 136.08377557 164.16274609 117.36865234 146.00317383 C112.61068578 142.02438645 107.31201843 139.47070952 101.72802734 136.85864258 C93.84707694 133.09901044 93.84707694 133.09901044 92.44677734 129.99536133 C92.21474609 129.06981445 91.98271484 128.14426758 91.74365234 127.19067383 C87.97773702 114.67811646 81.29560532 102.95939362 72.49365234 93.31567383 C71.96642578 92.70852539 71.43919922 92.10137695 70.89599609 91.47583008 C62.98233277 82.90107448 52.34166821 76.39680843 41.49365234 72.31567383 C40.53072266 71.92379883 39.56779297 71.53192383 38.57568359 71.12817383 C22.64337886 65.53925329 3.18845623 66.41633888 -12.50634766 72.31567383 C-13.66908203 72.73977539 -14.83181641 73.16387695 -16.02978516 73.60083008 C-37.99479991 82.30440657 -58.66899443 98.80603508 -70.50634766 119.31567383 C-72.91062428 126.52850371 -71.15387469 132.29961964 -68.44384766 139.06567383 C-67.85966711 140.53571241 -67.28504324 142.00959367 -66.72119141 143.48754883 C-66.4645874 144.12789062 -66.2079834 144.76823242 -65.94360352 145.42797852 C-65.40887818 147.73646331 -65.72096359 149.09835802 -66.50634766 151.31567383 C-67.85400391 152.96411133 -67.85400391 152.96411133 -69.56884766 154.69067383 C-72.89182856 158.34320656 -75.38491756 162.17217663 -77.81884766 166.44067383 C-78.15601807 167.0263916 -78.49318848 167.61210937 -78.84057617 168.21557617 C-82.55254067 174.8706719 -83.84095604 180.84850121 -84.50634766 188.31567383 C-85.45425735 198.95332701 -85.45425735 198.95332701 -87.50634766 203.31567383 C-89.46728516 204.60864258 -89.46728516 204.60864258 -91.88134766 205.50317383 C-102.47497879 210.28640525 -110.61795419 219.47956869 -116.50634766 229.31567383 C-116.89177734 229.94602539 -117.27720703 230.57637695 -117.67431641 231.22583008 C-125.46948354 245.29297077 -127.74083824 263.67089875 -124.46337891 279.35083008 C-123.18906498 283.29860262 -121.51504921 286.96775 -119.69384766 290.69067383 C-119.36255859 291.36928467 -119.03126953 292.04789551 -118.68994141 292.74707031 C-116.9438045 296.12895134 -115.46803028 298.35266626 -112.68212891 301.04223633 C-110.50634766 303.31567383 -110.50634766 303.31567383 -110.36181641 305.24536133 C-112.08108325 308.35529794 -114.43398121 310.83704296 -116.81884766 313.44067383 C-144.58168004 344.83856743 -162.2919278 387.55650481 -170.50634766 428.31567383 C-173.50634766 428.31567383 -173.50634766 428.31567383 -175.23291016 426.95239258 C-179.83783792 422.22428773 -184.09855757 417.30662669 -188.22509766 412.15551758 C-189.70227399 410.3166354 -191.20114306 408.4948856 -192.72509766 406.69458008 C-202.91707993 394.61851657 -211.17809795 381.28589579 -218.50634766 367.31567383 C-218.93560547 366.50195312 -219.36486328 365.68823242 -219.80712891 364.84985352 C-231.98984934 341.44112485 -240.28640552 316.37217665 -244.50634766 290.31567383 C-244.68891113 289.26984131 -244.87147461 288.22400879 -245.05957031 287.14648438 C-246.93967087 275.13677703 -246.90358215 263.13343871 -246.88134766 251.00317383 C-246.88080383 249.89106537 -246.88026001 248.77895691 -246.87969971 247.63314819 C-246.84267889 231.18835463 -246.28546651 215.38906898 -242.50634766 199.31567383 C-242.28672363 198.3432373 -242.06709961 197.37080078 -241.84082031 196.36889648 C-240.28863456 189.61419714 -238.49883984 182.95327696 -236.50634766 176.31567383 C-236.25546387 175.47907227 -236.00458008 174.6424707 -235.74609375 173.78051758 C-231.17716222 158.94838486 -224.54893399 145.11549826 -217.50634766 131.31567383 C-217.10657715 130.53144043 -216.70680664 129.74720703 -216.29492188 128.93920898 C-205.32413898 107.73937089 -189.76012054 89.61725282 -173.50634766 72.31567383 C-172.89275391 71.65954102 -172.27916016 71.0034082 -171.64697266 70.32739258 C-167.51973185 66.05275032 -162.99491979 62.33434704 -158.36181641 58.62036133 C-156.57049192 57.17455908 -154.7986456 55.70391224 -153.05712891 54.19848633 C-122.77925369 28.24602185 -84.33635321 12.43330238 -45.69384766 4.06567383 C-45.00274902 3.91453125 -44.31165039 3.76338867 -43.59960938 3.60766602 C-29.07203748 0.63298871 -14.78590901 -0.03132116 0 0 Z " fill="#ECDCD5" transform="translate(246.50634765625,-0.315673828125)"/>
<path d="M0 0 C2.7595797 2.19933581 5.4098886 4.47464806 8.03515625 6.83203125 C9.09669922 7.75242187 9.09669922 7.75242187 10.1796875 8.69140625 C20.91094386 18.59718135 29.73127526 34.2782932 33.22265625 48.45703125 C35.75584078 53.17399555 38.86847766 53.72944733 43.765625 55.5 C57.27745972 61.00482155 66.80170044 72.93797729 72.4140625 86.0546875 C78.61984913 102.48612852 79.4760722 117.48255407 79.03515625 134.83203125 C79.6477832 135.12303711 80.26041016 135.41404297 80.89160156 135.71386719 C94.79888461 142.96846359 102.54151578 161.82988122 107.00390625 175.8828125 C112.96632445 198.93197544 108.47284733 220.49195593 97.03515625 240.83203125 C96.37515625 241.82203125 95.71515625 242.81203125 95.03515625 243.83203125 C94.04515625 243.83203125 93.05515625 243.83203125 92.03515625 243.83203125 C90.5546875 242.20703125 90.5546875 242.20703125 88.84765625 239.83203125 C74.6721225 221.53600415 57.12400975 207.27310374 36.03515625 197.83203125 C34.88917969 197.31769531 33.74320313 196.80335938 32.5625 196.2734375 C28.80613043 194.73844262 25.04084892 193.50315551 21.16015625 192.33203125 C20.10634766 192.00404541 20.10634766 192.00404541 19.03125 191.66943359 C16.12259264 190.76417447 13.21929108 189.88158595 10.27734375 189.08984375 C5.08276998 187.62377938 2.23649453 185.37251579 -1.65234375 181.6796875 C-7.03403426 177.37978951 -14.20941908 174.24214417 -20.96484375 172.83203125 C-21.30285527 170.29090893 -21.63537754 167.74926379 -21.96484375 165.20703125 C-22.10792969 164.13775391 -22.10792969 164.13775391 -22.25390625 163.046875 C-22.78090476 158.94381516 -23.06951359 154.97957383 -22.96484375 150.83203125 C-22.3821875 150.81785156 -21.79953125 150.80367187 -21.19921875 150.7890625 C-11.73250352 150.23832592 -3.09316281 147.62924036 3.53515625 140.58203125 C10.13200478 132.35311417 12.99066294 123.32554217 12.03515625 112.83203125 C9.87603934 103.19538444 5.19054572 97.26895757 -2.96484375 91.83203125 C-10.80176865 90.85716337 -18.02416363 91.80073885 -24.40234375 96.70703125 C-26.96484375 97.83203125 -26.96484375 97.83203125 -30.83984375 97.01953125 C-41.11550165 93.00533434 -50.6753764 87.78769654 -58.71875 80.203125 C-61.77760438 78.33589389 -63.5334272 79.21023094 -66.96484375 79.83203125 C-67.99681853 78.86506276 -68.9953573 77.86164089 -69.96484375 76.83203125 C-72.92728101 76.25255844 -72.92728101 76.25255844 -76.15234375 76.14453125 C-77.23902344 76.07878906 -78.32570313 76.01304687 -79.4453125 75.9453125 C-80.27675781 75.90792969 -81.10820312 75.87054688 -81.96484375 75.83203125 C-82.29484375 74.51203125 -82.62484375 73.19203125 -82.96484375 71.83203125 C-79.76104358 69.69616447 -78.94544408 69.6007095 -75.27734375 69.70703125 C-74.46910156 69.72507812 -73.66085938 69.743125 -72.828125 69.76171875 C-72.21324219 69.78492188 -71.59835938 69.808125 -70.96484375 69.83203125 C-71.44953125 69.06761719 -71.93421875 68.30320312 -72.43359375 67.515625 C-76.27484716 61.37700658 -79.98612723 55.1841613 -83.46484375 48.83203125 C-83.81482422 48.20997803 -84.16480469 47.5879248 -84.52539062 46.94702148 C-86.41938567 43.43007846 -87.38982471 40.83899459 -86.96484375 36.83203125 C-87.62484375 36.83203125 -88.28484375 36.83203125 -88.96484375 36.83203125 C-89.04734375 37.51265625 -89.12984375 38.19328125 -89.21484375 38.89453125 C-91.00928155 45.92274596 -94.939338 50.94011206 -100.96484375 54.83203125 C-106.46275874 57.53723876 -111.9059974 59.80002995 -117.96484375 60.83203125 C-118.62484375 63.80203125 -119.28484375 66.77203125 -119.96484375 69.83203125 C-119.30484375 69.50203125 -118.64484375 69.17203125 -117.96484375 68.83203125 C-115.90625 68.84765625 -115.90625 68.84765625 -113.52734375 69.08203125 C-112.35365234 69.18257812 -112.35365234 69.18257812 -111.15625 69.28515625 C-108.56237049 69.93247021 -107.54302759 70.69168389 -105.96484375 72.83203125 C-106.27734375 75.51953125 -106.27734375 75.51953125 -106.96484375 77.83203125 C-107.48046875 77.50203125 -107.99609375 77.17203125 -108.52734375 76.83203125 C-111.84732163 75.46998904 -114.40670623 75.5143404 -117.96484375 75.83203125 C-120.2201823 76.76213218 -120.2201823 76.76213218 -121.96484375 78.83203125 C-122.72765738 81.59170834 -123.25355275 84.08342169 -123.65234375 86.89453125 C-123.82733398 87.96477539 -123.82733398 87.96477539 -124.00585938 89.05664062 C-127.09296373 108.57341902 -128.73423219 130.74105062 -122.96484375 149.83203125 C-122.52978516 151.30736328 -122.52978516 151.30736328 -122.0859375 152.8125 C-118.79968999 162.78124245 -113.90523878 171.93949816 -104.96484375 177.83203125 C-101.70007404 179.40378467 -98.40441536 180.69725455 -94.96484375 181.83203125 C-95.62484375 184.14203125 -96.28484375 186.45203125 -96.96484375 188.83203125 C-97.78984375 188.97189453 -98.61484375 189.11175781 -99.46484375 189.25585938 C-122.21434021 193.12941301 -122.21434021 193.12941301 -142.96484375 202.83203125 C-143.99609375 203.44820312 -145.02734375 204.064375 -146.08984375 204.69921875 C-154.39032277 209.90863397 -161.655757 216.34467614 -168.96484375 222.83203125 C-177.92337137 218.77570222 -181.64611761 209.59264373 -184.96484375 200.83203125 C-188.66414213 188.39534242 -187.88799743 175.07497634 -183.96484375 162.83203125 C-183.5471875 161.46304688 -183.5471875 161.46304688 -183.12109375 160.06640625 C-177.50852552 143.13193315 -166.7131634 130.29143268 -150.96484375 121.83203125 C-149.97484375 121.50203125 -148.98484375 121.17203125 -147.96484375 120.83203125 C-146.81679996 115.1698347 -145.91183441 109.67201443 -145.65234375 103.89453125 C-144.71986503 92.032179 -137.74765233 78.62969067 -128.625 70.83203125 C-126.65067354 68.90315468 -126.65067354 68.90315468 -127.0546875 66.01171875 C-128.03904701 62.57279755 -129.22512681 59.288629 -130.52734375 55.95703125 C-134.51188012 44.83062122 -134.51188012 44.83062122 -131.99609375 38.328125 C-128.04559977 30.25487713 -122.17225347 24.18592852 -115.96484375 17.83203125 C-115.37960938 17.18492188 -114.794375 16.5378125 -114.19140625 15.87109375 C-85.3721686 -15.28879264 -35.29096285 -25.80564477 0 0 Z " fill="#010101" transform="translate(306.96484375,81.16796875)"/>
<path d="M0 0 C0.66 0 1.32 0 2 0 C2.15855469 0.54164795 2.31710938 1.0832959 2.48046875 1.64135742 C4.34133331 7.63326419 6.88733042 12.8790606 10 18.3125 C10.43828125 19.09689453 10.8765625 19.88128906 11.328125 20.68945312 C13.7818365 25.04167459 13.7818365 25.04167459 16.6484375 29.12573242 C18 31 18 31 18 33 C17.37351563 33.06058594 16.74703125 33.12117188 16.1015625 33.18359375 C15.28429687 33.26738281 14.46703125 33.35117188 13.625 33.4375 C12.81289062 33.51871094 12.00078125 33.59992188 11.1640625 33.68359375 C8.95727195 33.89090114 8.95727195 33.89090114 7 35 C7 35.99 7 36.98 7 38 C8.24716797 38.05607422 8.24716797 38.05607422 9.51953125 38.11328125 C10.60621094 38.17902344 11.69289062 38.24476563 12.8125 38.3125 C13.89144531 38.37050781 14.97039062 38.42851562 16.08203125 38.48828125 C19 39 19 39 20.51171875 40.60546875 C21.00285156 41.06566406 21.49398437 41.52585938 22 42 C22.96292969 41.82726562 23.92585938 41.65453125 24.91796875 41.4765625 C28 41 28 41 30.17578125 42.3359375 C30.88089844 43.00882813 31.58601563 43.68171875 32.3125 44.375 C36.82012218 48.26607811 41.4457701 51.11619479 46.6875 53.875 C47.75641479 54.44613525 47.75641479 54.44613525 48.84692383 55.02880859 C53.11596933 57.23893574 57.23379876 59.12979858 62 60 C64.5553536 59.24048568 64.5553536 59.24048568 66.6875 57.6875 C72.77536676 53.7406592 78.78786348 52.94261899 86 54 C93.17313325 57.54493152 97.84657873 63.79217995 101 71 C103.65475604 79.92963395 102.02672927 89.31341774 97.7109375 97.421875 C92.38165681 105.91452552 85.83655448 111.47184567 76 114 C72.63173078 114.28490135 69.36831874 114.25799888 66 114 C66.2165625 115.25103516 66.2165625 115.25103516 66.4375 116.52734375 C67.52436114 123.11643939 68.22629031 129.32443581 68 136 C68.86753906 136.10957031 69.73507812 136.21914062 70.62890625 136.33203125 C79.2262762 138.03556574 86.80499793 142.94266464 93 149 C94.9824035 152.964807 94.48161741 157.28544201 93.31640625 161.43359375 C91.02312203 167.53315884 87.90106551 172.79857932 84 178 C83.28263672 178.96679688 83.28263672 178.96679688 82.55078125 179.953125 C72.62609632 192.25273453 53.60714479 206.7863732 38 210 C38.45890625 210.98097656 38.9178125 211.96195313 39.390625 212.97265625 C43.603422 222.16849189 46.76286416 231.1253305 49 241 C49.1750708 241.75804932 49.3501416 242.51609863 49.53051758 243.29711914 C52.25466669 258.98045497 51.26966834 278.03590639 46 293 C45.69433105 293.87043945 45.38866211 294.74087891 45.07373047 295.63769531 C42.1089731 303.92874838 39.10067752 312.19466055 35 320 C31.96962416 318.67855875 30.23945292 317.40542282 28.265625 314.76171875 C27.53412231 313.78887939 27.53412231 313.78887939 26.7878418 312.79638672 C26.280354 312.1004541 25.77286621 311.40452148 25.25 310.6875 C24.71995361 309.96836426 24.18990723 309.24922852 23.64379883 308.50830078 C8.17042052 287.27438263 -2.94998826 265.78126595 0 239 C1.50701219 230.22244269 3.67716927 221.59323814 6 213 C-1.36135829 226.92449701 -5.61904979 243.53807707 -7.46484375 259.109375 C-7.98847312 262.91619875 -8.93694018 266.31238956 -10 270 C-10.78079695 273.79975993 -11.45387115 277.61703688 -12.125 281.4375 C-12.30675781 282.45521484 -12.48851562 283.47292969 -12.67578125 284.52148438 C-13.12041404 287.01376818 -13.56173154 289.50659057 -14 292 C-14.66 292 -15.32 292 -16 292 C-26.19831482 274.21765919 -35.45878526 253.64601824 -31.34765625 232.671875 C-27.33388084 218.1327057 -17.24055172 204.83575661 -5 196 C-4.34 196 -3.68 196 -3 196 C-3.3556604 195.17592651 -3.3556604 195.17592651 -3.71850586 194.33520508 C-4.796498 191.82975166 -5.86705402 189.32118622 -6.9375 186.8125 C-7.31068359 185.94818359 -7.68386719 185.08386719 -8.06835938 184.19335938 C-8.42607422 183.35224609 -8.78378906 182.51113281 -9.15234375 181.64453125 C-9.6472229 180.48981323 -9.6472229 180.48981323 -10.15209961 179.31176758 C-14.08034553 168.60155722 -11.64073266 158.01476269 -7.3125 147.8125 C-6.6628125 146.4203125 -6.6628125 146.4203125 -6 145 C-6.804375 144.95875 -7.60875 144.9175 -8.4375 144.875 C-16.67144572 142.85262737 -23.29011659 136.90105219 -28 130 C-41.67884288 105.44245385 -40.66382856 73.83164089 -35 47 C-33.41470104 41.46077894 -33.41470104 41.46077894 -31.3125 39.125 C-28.06055464 37.54297253 -25.5717206 37.68109637 -22 38 C-19.5625 39 -19.5625 39 -18 40 C-18.3299974 36.37671945 -18.3299974 36.37671945 -20.5625 33.6875 C-24.10657174 32.68789002 -27.32218719 32.87740624 -31 33 C-30.505 28.545 -30.505 28.545 -30 24 C-28.9275 23.608125 -27.855 23.21625 -26.75 22.8125 C-26.02425781 22.5340625 -25.29851562 22.255625 -24.55078125 21.96875 C-22.72480312 21.27526979 -20.88726258 20.61193834 -19.04296875 19.96875 C-11.08262071 17.00489714 -5.62924449 13.55167811 -1.9140625 5.70703125 C-1.19177856 3.83505683 -0.582847 1.91996659 0 0 Z " fill="#EE7C62" transform="translate(218,118)"/>
<path d="M0 0 C9.70722998 1.22602459 18.08075509 6.23451609 25 13 C26.9824035 16.964807 26.48161741 21.28544201 25.31640625 25.43359375 C23.02312203 31.53315884 19.90106551 36.79857932 16 42 C15.28263672 42.96679688 15.28263672 42.96679688 14.55078125 43.953125 C4.62609632 56.25273453 -14.39285521 70.7863732 -30 74 C-29.54109375 74.98097656 -29.0821875 75.96195312 -28.609375 76.97265625 C-24.396578 86.16849189 -21.23713584 95.1253305 -19 105 C-18.8249292 105.75804932 -18.6498584 106.51609863 -18.46948242 107.29711914 C-15.74533331 122.98045497 -16.73033166 142.03590639 -22 157 C-22.30566895 157.87043945 -22.61133789 158.74087891 -22.92626953 159.63769531 C-25.8910269 167.92874838 -28.89932248 176.19466055 -33 184 C-36.03037584 182.67855875 -37.76054708 181.40542282 -39.734375 178.76171875 C-40.22204346 178.11315918 -40.70971191 177.46459961 -41.2121582 176.79638672 C-41.719646 176.1004541 -42.22713379 175.40452148 -42.75 174.6875 C-43.28004639 173.96836426 -43.81009277 173.24922852 -44.35620117 172.50830078 C-59.82957948 151.27438263 -70.94998826 129.78126595 -68 103 C-66.49298781 94.22244269 -64.32283073 85.59323814 -62 77 C-69.36135829 90.92449701 -73.61904979 107.53807707 -75.46484375 123.109375 C-75.98847312 126.91619875 -76.93694018 130.31238956 -78 134 C-78.78079695 137.79975993 -79.45387115 141.61703688 -80.125 145.4375 C-80.30675781 146.45521484 -80.48851562 147.47292969 -80.67578125 148.52148438 C-81.12041404 151.01376818 -81.56173154 153.50659057 -82 156 C-82.66 156 -83.32 156 -84 156 C-94.19831482 138.21765919 -103.45878526 117.64601824 -99.34765625 96.671875 C-95.33388084 82.1327057 -85.24055172 68.83575661 -73 60 C-72.34 60 -71.68 60 -71 60 C-71.23710693 59.45061768 -71.47421387 58.90123535 -71.71850586 58.33520508 C-72.796498 55.82975166 -73.86705402 53.32118622 -74.9375 50.8125 C-75.31068359 49.94818359 -75.68386719 49.08386719 -76.06835938 48.19335938 C-76.42607422 47.35224609 -76.78378906 46.51113281 -77.15234375 45.64453125 C-77.48226318 44.87471924 -77.81218262 44.10490723 -78.15209961 43.31176758 C-81.75546222 33.48733896 -80.16960348 23.42429645 -76.1328125 13.96875 C-75.46625004 12.62292865 -74.74131935 11.30613409 -74 10 C-71.69 10 -69.38 10 -67 10 C-66.49061655 12.49840454 -65.99236886 14.99823388 -65.5 17.5 C-65.35691406 18.19609375 -65.21382812 18.8921875 -65.06640625 19.609375 C-64.11657353 24.49422898 -63.61710187 29.02232433 -64 34 C-65.47265625 35.64453125 -65.47265625 35.64453125 -67 37 C-68.64700429 46.7781606 -65.89564793 56.7106769 -63 66 C-62.773125 66.76699219 -62.54625 67.53398437 -62.3125 68.32421875 C-60.12438168 71.11797696 -57.22772906 71.39657806 -53.875 72.25 C-53.21628906 72.42273438 -52.55757812 72.59546875 -51.87890625 72.7734375 C-50.25630118 73.19672578 -48.62857546 73.60029741 -47 74 C-47.144375 74.98097656 -47.28875 75.96195312 -47.4375 76.97265625 C-50.20150031 96.26081341 -50.20150031 96.26081341 -46 115 C-44.13381448 116.86618552 -41.50222346 116.3485526 -39.0078125 116.5234375 C-36.76326011 116.15405967 -36.76326011 116.15405967 -35.26953125 113.8046875 C-30.88799478 104.12486231 -35.25117509 91.72120926 -38 82 C-38.37382812 81.07058594 -38.74765625 80.14117187 -39.1328125 79.18359375 C-40 77 -40 77 -40 74 C-39.38511719 73.82984375 -38.77023438 73.6596875 -38.13671875 73.484375 C-37.32847656 73.24203125 -36.52023438 72.9996875 -35.6875 72.75 C-34.88699219 72.51796875 -34.08648437 72.2859375 -33.26171875 72.046875 C-29.79610915 70.44275864 -28.5149748 68.21220405 -27.05078125 64.765625 C-24.61437195 56.46378592 -24.7099579 48.56161316 -25 40 C-26.98 39.505 -26.98 39.505 -29 39 C-28.94779297 40.30710937 -28.94779297 40.30710937 -28.89453125 41.640625 C-28.46763285 60.42415459 -28.46763285 60.42415459 -33.78515625 67.3125 C-37.7669407 70.34624054 -42.21409517 69.45028674 -47 69 C-50.06799964 68.47985064 -52.98492473 67.79083942 -56 67 C-55.71125 65.98421875 -55.4225 64.9684375 -55.125 63.921875 C-51.05839422 50.29524497 -51.05839422 50.29524497 -53.0234375 36.671875 C-53.34570312 36.12015625 -53.66796875 35.5684375 -54 35 C-53.175 34.81566406 -52.35 34.63132812 -51.5 34.44140625 C-35.82556319 30.50530326 -23.41714358 22.0666399 -11 12 C-10.01257813 11.25105469 -9.02515625 10.50210937 -8.0078125 9.73046875 C-7.09773438 9.03566406 -6.18765625 8.34085937 -5.25 7.625 C-4.45078125 7.01914062 -3.6515625 6.41328125 -2.828125 5.7890625 C-0.83999752 3.84341638 -0.35943901 2.71975521 0 0 Z " fill="#FAB15A" transform="translate(286,254)"/>
<path d="M0 0 C2.75329021 1.79562405 4.52627461 3.05254922 6 6 C6.84228733 16.09125015 4.81588508 24.72574017 1 34 C5.96193766 34.65074592 10.87040679 35.11672189 15.875 35.25 C17.23238281 35.28867187 17.23238281 35.28867187 18.6171875 35.328125 C21.01410063 35.18034313 21.01410063 35.18034313 22.71484375 33.81640625 C28.16767108 26.10952264 27.35748077 14.95025917 27 6 C28.875 5.375 28.875 5.375 31 5 C33.43740322 7.43740322 33.30532014 8.86730397 33.37988281 12.20605469 C33.37746582 13.24874512 33.37746582 13.24874512 33.375 14.3125 C33.37258301 15.38032715 33.37258301 15.38032715 33.37011719 16.46972656 C33.19717915 24.07560938 32.03304501 32.25924449 27.125 38.3125 C24.81724544 40.14512862 23.6479928 40.55680048 20.75 40.75 C19.5125 40.8325 18.275 40.915 17 41 C17.25394531 41.79921875 17.50789063 42.5984375 17.76953125 43.421875 C18.87222066 46.9405693 19.94355273 50.46714945 21 54 C21.30808594 55.02738281 21.61617187 56.05476563 21.93359375 57.11328125 C23.99886665 64.57395609 26.30740781 73.60111826 22.5390625 80.78515625 C21 83 21 83 20 84 C12.73260073 84.58608059 12.73260073 84.58608059 10.125 82.5 C4.16110874 69.2469083 6.98601537 54.65263278 10 41 C9.00419922 40.81824219 9.00419922 40.81824219 7.98828125 40.6328125 C7.10527344 40.46523438 6.22226563 40.29765625 5.3125 40.125 C4.44238281 39.96257812 3.57226562 39.80015625 2.67578125 39.6328125 C-4.38739763 37.96239647 -4.38739763 37.96239647 -6.29296875 34.96875 C-9.86932165 25.09864069 -12.69149063 14.57898378 -11 4 C-7.70199237 -0.28812224 -5.34384486 -0.75001331 0 0 Z " fill="#F7774F" transform="translate(229,287)"/>
<path d="M0 0 C0.66 0.33 1.32 0.66 2 1 C-9.70514509 18.49232576 -24.9883555 28.25079827 -45 34 C-45.99 34 -46.98 34 -48 34 C-48.33 29.05 -48.66 24.1 -49 19 C-47.43765625 18.77957031 -47.43765625 18.77957031 -45.84375 18.5546875 C-29.70088202 16.09965006 -12.43797054 11.15128393 0 0 Z " fill="#090504" transform="translate(269,246)"/>
<path d="M0 0 C0.40667211 5.12250452 -0.89383817 8.62426047 -3.25 13.0625 C-3.55035156 13.66126953 -3.85070312 14.26003906 -4.16015625 14.87695312 C-7.02437862 20.44085744 -10.09099048 25.46756735 -16 28 C-20.01318498 28 -21.59671953 27.33763016 -24.6875 24.75 C-30 18.43243243 -30 18.43243243 -30 13 C-26.37562697 11.13830019 -22.74603631 9.28724494 -19.11132812 7.44580078 C-17.87613116 6.81815741 -16.64238672 6.18764678 -15.41015625 5.55419922 C-13.63668025 4.64314744 -11.85746098 3.74330319 -10.078125 2.84375 C-9.00981445 2.29912109 -7.94150391 1.75449219 -6.84082031 1.19335938 C-4 0 -4 0 0 0 Z " fill="#0E0705" transform="translate(239,214)"/>
<path d="M0 0 C2.475 0.495 2.475 0.495 5 1 C4.36610765 4.49844386 2.94822306 6.84086876 0.9375 9.75 C0.38964844 10.54921875 -0.15820312 11.3484375 -0.72265625 12.171875 C-1.14417969 12.77515625 -1.56570313 13.3784375 -2 14 C0.97 14 3.94 14 7 14 C7.33 15.32 7.66 16.64 8 18 C6.1379722 19.8620278 2.73976602 19.08884157 0.25 19.125 C-4.74209227 19.25823645 -4.74209227 19.25823645 -8.8984375 21.62109375 C-10.00389909 23.37082117 -11.00892746 25.18303368 -12 27 C-13.32 27 -14.64 27 -16 27 C-16.35864791 22.74960091 -15.57834702 20.82407155 -13.0078125 17.4609375 C-12.38519531 16.63335937 -11.76257813 15.80578125 -11.12109375 14.953125 C-10.46238281 14.10234375 -9.80367188 13.2515625 -9.125 12.375 C-7.83570163 10.67465799 -6.54662947 8.97414443 -5.2578125 7.2734375 C-4.6817627 6.52497559 -4.10571289 5.77651367 -3.51220703 5.00537109 C-2.28502697 3.37798055 -1.13060513 1.6959077 0 0 Z " fill="#0E0705" transform="translate(300,184)"/>
<path d="M0 0 C2.125 0.375 2.125 0.375 4 1 C3.53752904 4.16021824 2.98671891 7.0382808 1.9375 10.0625 C-0.23813321 17.3362588 0.6184461 25.65013326 2 33 C-0.475 33.495 -0.475 33.495 -3 34 C-5.61936186 30.09704648 -5.34313349 25.8976178 -5.3125 21.375 C-5.30976074 20.57191406 -5.30702148 19.76882812 -5.30419922 18.94140625 C-5.18744287 12.29568863 -4.93279227 4.93279227 0 0 Z " fill="#100806" transform="translate(206,182)"/>
<path d="M0 0 C3 1.625 3 1.625 5 4 C5.8125 7.25 5.8125 7.25 6 10 C4.68 10.33 3.36 10.66 2 11 C1.484375 10.154375 0.96875 9.30875 0.4375 8.4375 C-0.366875 7.633125 -1.17125 6.82875 -2 6 C-5.99438174 6.06886865 -8.1314229 6.1314229 -11 9 C-13.625 8.625 -13.625 8.625 -16 8 C-15.77069943 4.78979202 -14.93806165 3.94425548 -12.5 1.75 C-8.13047359 -0.43476321 -4.79678498 -0.8657181 0 0 Z " fill="#130A08" transform="translate(238,167)"/>
<path d="M0 0 C4.11856831 1.32382553 5.95935497 2.63161309 8.5 6.125 C8.3125 8.9375 8.3125 8.9375 7.5 11.125 C4.62909413 10.72901298 3.71084873 10.3926157 1.875 8.0625 C1.42125 7.423125 0.9675 6.78375 0.5 6.125 C-0.16 6.125 -0.82 6.125 -1.5 6.125 C-2.88938077 8.08647874 -4.2260411 10.08666576 -5.5 12.125 C-6.82 11.795 -8.14 11.465 -9.5 11.125 C-9.23321412 7.30106909 -8.64625232 5.32717233 -6.375 2.1875 C-3.5 0.125 -3.5 0.125 0 0 Z " fill="#140A08" transform="translate(194.5,165.875)"/>
<path d="M0 0 C3.89234679 5.83852018 4.2864115 11.65200895 4.125 18.4375 C4.11597656 19.16904297 4.10695312 19.90058594 4.09765625 20.65429688 C4.07436153 22.43634298 4.0385019 24.21821759 4 26 C2.0625 25.625 2.0625 25.625 0 25 C-1.18397001 22.63205997 -1.12913001 21.17418691 -1.1328125 18.53515625 C-1.13410156 17.65279297 -1.13539063 16.77042969 -1.13671875 15.86132812 C-1.13091797 14.4759082 -1.13091797 14.4759082 -1.125 13.0625 C-1.12886719 12.14275391 -1.13273438 11.22300781 -1.13671875 10.27539062 C-1.13542969 9.39173828 -1.13414062 8.50808594 -1.1328125 7.59765625 C-1.13168457 6.78820557 -1.13055664 5.97875488 -1.12939453 5.14477539 C-1 3 -1 3 0 0 Z " fill="#FBAF5A" transform="translate(243,340)"/>
<path d="M0 0 C1.32 0 2.64 0 4 0 C5.46343456 2.92686912 5.1704426 5.55453613 5.1875 8.8125 C5.20167969 10.03582031 5.21585938 11.25914062 5.23046875 12.51953125 C5.01147479 15.82671123 4.42682853 18.0391898 3 21 C1 20 1 20 0.3671875 18.28515625 C-0.90969673 12.51890923 -1.50407334 6.90820846 -1 1 C-0.67 0.67 -0.34 0.34 0 0 Z " fill="#FBAF5A" transform="translate(224,292)"/>
<path d="M0 0 C-0.92573035 4.90416674 -3.62996702 8.41018226 -7 12 C-9.625 13.25 -9.625 13.25 -12 13 C-14.3125 11.1875 -14.3125 11.1875 -16 9 C-16 8.34 -16 7.68 -16 7 C-13.71070947 5.82845707 -11.41881638 4.66261926 -9.125 3.5 C-8.47402344 3.16613281 -7.82304687 2.83226562 -7.15234375 2.48828125 C-2.2265625 0 -2.2265625 0 0 0 Z " fill="#E1755D" transform="translate(231,223)"/>
<path d="M0 0 C1.12670431 3.38011294 0.84431821 4.50457306 0.00390625 7.88671875 C-0.33930664 9.2934082 -0.33930664 9.2934082 -0.68945312 10.72851562 C-0.93630859 11.70498047 -1.18316406 12.68144531 -1.4375 13.6875 C-1.68048828 14.67556641 -1.92347656 15.66363281 -2.17382812 16.68164062 C-2.77531863 19.12298445 -3.38430006 21.56220809 -4 24 C-5.51391602 22.66259766 -5.51391602 22.66259766 -7 21 C-6.37250795 13.66825077 -3.25096244 6.53492958 0 0 Z " fill="#657F4B" transform="translate(224,328)"/>
<path d="M0 0 C1.23922223 3.71766668 0.57018942 5.43889537 -0.4375 9.1875 C-0.72496094 10.27417969 -1.01242188 11.36085938 -1.30859375 12.48046875 C-1.53675781 13.31191406 -1.76492187 14.14335937 -2 15 C-4 12 -4 12 -3.8125 9.75 C-2.80660001 6.34541541 -1.45959132 3.23648511 0 0 Z " fill="#81894E" transform="translate(224,328)"/>
</svg>
