<?xml version="1.0" encoding="UTF-8"?>
<svg version="1.1" xmlns="http://www.w3.org/2000/svg" width="500" height="500">
<path d="M0 0 C0.89996201 -0.0033284 1.79992401 -0.0066568 2.72715759 -0.01008606 C4.6204274 -0.01511305 6.51370594 -0.01749571 8.40698242 -0.01733398 C11.24608663 -0.01950732 14.08479303 -0.03767267 16.92382812 -0.05664062 C28.17590856 -0.09210808 39.0858918 0.501279 50.21484375 2.16796875 C51.78770142 2.40157104 51.78770142 2.40157104 53.39233398 2.63989258 C101.75424032 10.41285131 148.30710911 33.31510484 183.46484375 67.46923828 C184.70892066 68.67686763 185.95963981 69.87767066 187.21484375 71.07373047 C197.66762327 81.04854511 206.79120549 91.43527108 215.21484375 103.16796875 C215.88773437 104.07933594 216.560625 104.99070312 217.25390625 105.9296875 C222.39568909 113.03192179 226.8522506 120.57116625 231.21484375 128.16796875 C231.58899414 128.81620605 231.96314453 129.46444336 232.34863281 130.13232422 C250.68629059 162.25907218 262.12006169 200.94209793 262.453125 238.00390625 C262.46296417 238.91288162 262.47280334 239.82185699 262.48294067 240.75837708 C263.10057281 312.66813123 239.71301489 376.60879343 189.24414062 428.421875 C181.03681736 436.72667241 172.6693631 444.32798169 163.21484375 451.16796875 C161.87887641 452.16011607 160.54294024 453.15230537 159.20703125 454.14453125 C133.82306766 472.75609348 104.72075364 486.1367279 74.27734375 493.91796875 C73.18349365 494.19987061 72.08964355 494.48177246 70.96264648 494.7722168 C52.51406053 499.29158732 34.64132019 500.68042974 15.67138672 500.61401367 C11.98347902 500.60551171 8.2971308 500.63437265 4.609375 500.66601562 C-55.15584659 500.84290224 -112.55797449 476.42602008 -156.42578125 436.3046875 C-158.46683587 434.45624896 -160.54889907 432.6846199 -162.66015625 430.91796875 C-206.27494388 392.74406006 -232.2230702 331.99337992 -237.78515625 275.16796875 C-238.29207832 267.13322878 -238.27197835 259.09028674 -238.22265625 251.04296875 C-238.21928253 249.97013641 -238.21590881 248.89730408 -238.21243286 247.79196167 C-238.13739141 231.28606584 -237.48751671 215.3189221 -233.78515625 199.16796875 C-233.5437793 198.10255859 -233.30240234 197.03714844 -233.05371094 195.93945312 C-223.247114 154.0239608 -204.00188655 114.1543073 -174.22265625 82.7578125 C-172.22243965 80.63258236 -170.33723223 78.47262136 -168.47265625 76.23046875 C-128.46016758 30.31137461 -60.57136326 0.080664 0 0 Z " fill="#8758E6" transform="translate(237.78515625,-0.16796875)"/>
<path d="M0 0 C0.89996201 -0.0033284 1.79992401 -0.0066568 2.72715759 -0.01008606 C4.6204274 -0.01511305 6.51370594 -0.01749571 8.40698242 -0.01733398 C11.24608663 -0.01950732 14.08479303 -0.03767267 16.92382812 -0.05664062 C28.17590856 -0.09210808 39.0858918 0.501279 50.21484375 2.16796875 C51.78770142 2.40157104 51.78770142 2.40157104 53.39233398 2.63989258 C101.75424032 10.41285131 148.30710911 33.31510484 183.46484375 67.46923828 C184.70892066 68.67686763 185.95963981 69.87767066 187.21484375 71.07373047 C197.66762327 81.04854511 206.79120549 91.43527108 215.21484375 103.16796875 C215.88773437 104.07933594 216.560625 104.99070312 217.25390625 105.9296875 C222.39568909 113.03192179 226.8522506 120.57116625 231.21484375 128.16796875 C231.58899414 128.81620605 231.96314453 129.46444336 232.34863281 130.13232422 C250.68629059 162.25907218 262.12006169 200.94209793 262.453125 238.00390625 C262.46296417 238.91288162 262.47280334 239.82185699 262.48294067 240.75837708 C262.97396944 297.92793784 249.59841889 353.13890539 214.21484375 399.16796875 C210.24005461 397.59824833 208.07193108 395.0282709 205.27734375 391.85546875 C204.29372512 390.76246695 203.30796631 389.67138817 202.3203125 388.58203125 C201.80903809 388.01774414 201.29776367 387.45345703 200.77099609 386.87207031 C185.56727948 370.22287955 168.06026001 356.69179642 147.69506836 346.91870117 C144.2702256 345.26572271 141.14962448 343.59985867 138.21484375 341.16796875 C138.57578125 340.59691406 138.93671875 340.02585937 139.30859375 339.4375 C145.11038778 329.30047654 144.10580753 319.33490317 141.25 308.296875 C132.70499718 282.46839478 107.78345008 266.8910883 85.33203125 254.35205078 C82.28059305 252.64546923 79.24817687 250.90648813 76.21484375 249.16796875 C78.32062747 247.06218503 80.40611599 245.00121859 82.65234375 243.04296875 C89.59556257 235.25301593 92.59803675 225.62416309 92.52734375 215.35546875 C92.52323486 214.15724487 92.52323486 214.15724487 92.51904297 212.93481445 C92.4174452 207.214393 91.66770281 202.38478119 89.21484375 197.16796875 C88.82296875 196.15734375 88.43109375 195.14671875 88.02734375 194.10546875 C87.62515625 193.14640625 87.62515625 193.14640625 87.21484375 192.16796875 C88.25382812 191.77996094 89.2928125 191.39195312 90.36328125 190.9921875 C98.84802588 187.343363 106.1718673 178.33921651 110.21484375 170.16796875 C110.53066406 169.58144531 110.84648437 168.99492187 111.171875 168.390625 C114.3843111 161.45234977 114.51491869 152.76156686 112.453125 145.4765625 C111.49730012 143.24378581 110.48495357 141.23777735 109.21484375 139.16796875 C108.62960937 138.17023438 108.044375 137.1725 107.44140625 136.14453125 C104.9909494 132.86865736 102.88759863 131.51996193 99.33984375 129.54296875 C93.5163055 125.84413961 91.24227929 122.42732088 88.56640625 116.16796875 C87.23404394 113.21058652 85.71300523 110.88522025 83.77734375 108.29296875 C80.95536534 104.44369118 78.81072724 100.47053211 76.77734375 96.16796875 C73.64802866 89.72031954 69.9891261 84.4887051 65.21484375 79.16796875 C64.69664062 78.54535156 64.1784375 77.92273438 63.64453125 77.28125 C54.86202998 67.46161918 40.30748641 60.88435878 27.34765625 59.86328125 C18.11090572 59.69866589 9.91004787 59.70501679 2.82421875 66.23828125 C-0.14351807 69.79668413 -1.96947205 73.93416135 -3.78515625 78.16796875 C-4.88214844 77.74644531 -5.97914063 77.32492188 -7.109375 76.890625 C-8.5637239 76.33703413 -10.01815535 75.78366013 -11.47265625 75.23046875 C-12.19388672 74.95267578 -12.91511719 74.67488281 -13.65820312 74.38867188 C-14.36396484 74.12119141 -15.06972656 73.85371094 -15.796875 73.578125 C-16.44100342 73.33199463 -17.08513184 73.08586426 -17.7487793 72.83227539 C-23.9059128 70.82369605 -29.99846147 70.94936016 -36.41015625 70.91796875 C-37.95509766 70.88703125 -37.95509766 70.88703125 -39.53125 70.85546875 C-49.91841617 70.80320628 -60.33228308 72.75431012 -68.78515625 79.16796875 C-71.09909013 81.66066147 -73.02299711 84.26185056 -74.78515625 87.16796875 C-75.15898437 87.75449219 -75.5328125 88.34101562 -75.91796875 88.9453125 C-78.81484943 96.37020036 -77.4960386 106.51766187 -74.66015625 113.73046875 C-69.92920742 123.46910714 -63.28678775 129.45258946 -53.01171875 133.171875 C-47.30784578 134.82551884 -41.69618922 135.68345785 -35.78515625 136.16796875 C-37.46861546 142.16210382 -39.4142421 147.91460533 -41.83203125 153.65234375 C-42.80496454 156.22024965 -43.41129771 158.7465745 -44.03515625 161.41796875 C-45.41946144 166.27056031 -47.54900655 167.80331536 -51.65625 170.49609375 C-58.77976112 176.09033735 -62.45857055 185.43662285 -63.78515625 194.16796875 C-64.63592302 204.9809399 -63.15141825 213.27294763 -56.78515625 222.16796875 C-56.45515625 222.49796875 -56.12515625 222.82796875 -55.78515625 223.16796875 C-55.40681521 225.18086133 -55.08294741 227.20409295 -54.78515625 229.23046875 C-54.62015625 230.33519531 -54.45515625 231.43992188 -54.28515625 232.578125 C-53.74759368 236.4376563 -53.25962305 240.3002171 -52.78515625 244.16796875 C-53.76613281 244.56886719 -54.74710938 244.96976563 -55.7578125 245.3828125 C-71.17744867 251.81729336 -83.89154701 259.39751819 -95.78515625 271.16796875 C-96.5121875 271.83441406 -97.23921875 272.50085938 -97.98828125 273.1875 C-108.30210093 282.83132746 -119.96955345 298.83215562 -120.92407227 313.26904297 C-120.94554545 315.48892596 -120.9115547 317.6989498 -120.84765625 319.91796875 C-120.66555193 327.8091558 -120.66555193 327.8091558 -121.78515625 331.16796875 C-124.55212574 332.4303051 -127.2445556 333.51532655 -130.09765625 334.54296875 C-131.76729478 335.16828995 -133.43656638 335.79459173 -135.10546875 336.421875 C-135.91790039 336.72367676 -136.73033203 337.02547852 -137.56738281 337.33642578 C-142.36738628 339.13616288 -147.0731311 341.15156159 -151.78515625 343.16796875 C-152.55859375 343.49603516 -153.33203125 343.82410156 -154.12890625 344.16210938 C-165.58794399 349.0304952 -176.93145708 354.10041583 -188.16015625 359.48046875 C-189.70062622 360.21728882 -189.70062622 360.21728882 -191.2722168 360.96899414 C-197.22444276 363.84566718 -203.04876761 366.88143999 -208.78515625 370.16796875 C-219.7802473 348.22035613 -228.52535097 326.19301919 -233.78515625 302.16796875 C-233.99688477 301.22646973 -234.20861328 300.2849707 -234.42675781 299.31494141 C-241.17370445 267.80958756 -240.98205661 230.56329157 -233.78515625 199.16796875 C-233.5437793 198.10255859 -233.30240234 197.03714844 -233.05371094 195.93945312 C-223.247114 154.0239608 -204.00188655 114.1543073 -174.22265625 82.7578125 C-172.22243965 80.63258236 -170.33723223 78.47262136 -168.47265625 76.23046875 C-128.46016758 30.31137461 -60.57136326 0.080664 0 0 Z " fill="#F6F4FE" transform="translate(237.78515625,-0.16796875)"/>
<path d="M0 0 C8.49787184 7.11046419 14.63458801 15.38697019 20 25 C20.61875 26.08796875 21.2375 27.1759375 21.875 28.296875 C23.44311184 33.45857647 22.30974333 36.86472831 21 42 C20.57172402 43.99349872 20.14414674 45.98716872 19.72724915 47.983078 C18.91959503 51.84675243 18.08248878 55.70411407 17.25 59.5625 C16.98638168 60.785634 16.98638168 60.785634 16.71743774 62.03347778 C14.26764209 73.38028706 11.73246182 84.69717449 8.9362793 95.96459961 C7.91455645 100.09261297 6.92525198 104.19328401 6.2109375 108.38671875 C5.04347659 115.1172012 4.06847317 118.86709223 -1.22265625 123.296875 C-7.5007981 129.31285268 -10.03464241 139.23683218 -10.375 147.625 C-10.18315056 158.53301119 -6.75428291 168.02961332 0.75 175.875 C1.4925 176.57625 2.235 177.2775 3 178 C-2.75 178.125 -2.75 178.125 -5 177 C-4.99254257 177.73391968 -4.98508514 178.46783936 -4.97740173 179.22399902 C-4.91487346 186.16782552 -4.89589194 193.11058096 -4.92484188 200.05458832 C-4.93821427 203.62423581 -4.93522317 207.19225322 -4.89379883 210.76171875 C-4.85437682 214.21201152 -4.85929348 217.65974574 -4.89392281 221.11006165 C-4.90218084 223.05537443 -4.86547209 225.00071193 -4.8278656 226.94567871 C-4.96808711 235.65029128 -4.96808711 235.65029128 -7.96487427 239.56999207 C-15.92065716 246.76600178 -25.76084287 251.09472616 -36 254 C-36.63566895 254.18103271 -37.27133789 254.36206543 -37.92626953 254.54858398 C-51.81157881 258.05600975 -72.64044681 258.76533521 -86 253 C-98.3335323 245.48093496 -109.03263144 234.76723871 -114 221 C-114.94032031 216.88050151 -114.97769613 213.78535815 -112.921875 210.03125 C-108.63726591 204.47538327 -102.90741282 201.28262333 -96 200.25 C-95.01 200.1675 -94.02 200.085 -93 200 C-93 199.34 -93 198.68 -93 198 C-93.57878906 197.75121094 -94.15757812 197.50242187 -94.75390625 197.24609375 C-104.52759731 191.82381993 -108.80565145 180.4815868 -111.71386719 170.3359375 C-113.02921751 165.52496582 -114.13489843 160.85365773 -114.5 155.875 C-115.06262646 151.51464491 -116.08658816 150.17047759 -119 147 C-124.37140968 137.64976833 -124.26720383 126.6773732 -121.5 116.4375 C-118.96992427 108.9728794 -114.9744878 101.25085788 -107.9375 97.265625 C-103.80224792 94.07620185 -103.16359864 90.73433681 -101.875 85.8125 C-99.85196295 78.52378652 -97.38615968 71.77231936 -94 65 C-95.216875 65.0825 -96.43375 65.165 -97.6875 65.25 C-108.34782939 65.19971543 -118.08992186 61.0200149 -126 54 C-133.66199601 46.04012942 -136.70227455 36.84329893 -136.60668945 25.90454102 C-136.21798765 18.12588848 -133.33255275 13.33890047 -127.94921875 7.9453125 C-122.77129099 3.51234415 -117.59008476 1.47963907 -111 0 C-110.39953857 -0.17055908 -109.79907715 -0.34111816 -109.18041992 -0.5168457 C-93.80006839 -3.92494286 -76.77864562 -1.13463994 -63 6 C-62.64808594 5.34773438 -62.29617187 4.69546875 -61.93359375 4.0234375 C-57.91259988 -3.09466653 -54.26139966 -8.32587871 -46.5 -11.375 C-29.66105953 -14.45727234 -13.78263057 -9.99098529 0 0 Z " fill="#F98064" transform="translate(296,71)"/>
<path d="M0 0 C5.32740939 4.70065534 9.63834528 10.79470357 11.83984375 17.59375 C13.39783771 20.82514488 15.28302831 21.74263271 18.375 23.5 C23.99755709 26.71288977 27.38196002 30.28489637 30.1875 36.125 C30.67283203 37.11886719 30.67283203 37.11886719 31.16796875 38.1328125 C34.43784895 45.4708535 34.19312439 54.82285422 31.4375 62.3125 C26.95301432 71.90867215 18.78760093 81.14159938 10 87 C8.68 87 7.36 87 6 87 C6.928125 88.5159375 6.928125 88.5159375 7.875 90.0625 C13.25866121 98.85581331 13.81647295 111.2812764 11.48291016 121.19726562 C8.5507577 130.65582195 4.03725262 138.02946948 -4 144 C-2.94683594 144.53367188 -1.89367187 145.06734375 -0.80859375 145.6171875 C24.65806586 158.69835751 51.74426009 176.05706693 61.34375 204.5 C63.71086452 213.51757913 64.87397545 223.22009949 60.4375 231.6875 C59.96183594 232.47511719 59.48617188 233.26273438 58.99609375 234.07421875 C58.66738281 234.70972656 58.33867187 235.34523438 58 236 C58.33 236.66 58.66 237.32 59 238 C58.12988281 238.27263672 58.12988281 238.27263672 57.2421875 238.55078125 C53.59625415 239.72397762 50.25655809 240.86145863 46.875 242.6875 C44 244 44 244 40.78125 243.90625 C36.564621 244.01079452 33.41539545 245.1399923 29.625 246.8125 C28.29628892 247.37019853 26.96686444 247.92620055 25.63671875 248.48046875 C24.43660156 248.98191406 23.23648438 249.48335937 22 250 C19.02856399 251.10902415 16.03353178 252.07608169 13 253 C12.08347656 253.29390625 11.16695312 253.5878125 10.22265625 253.890625 C-14.99076033 261.5921777 -41.71346594 264.93301891 -68 266 C-69.01707031 266.05285156 -70.03414062 266.10570312 -71.08203125 266.16015625 C-101.10590826 267.02877156 -134.87003817 256.05776081 -162 244 C-163.13695312 243.5153125 -164.27390625 243.030625 -165.4453125 242.53125 C-167.17394531 241.77328125 -167.17394531 241.77328125 -168.9375 241 C-169.97777344 240.54625 -171.01804688 240.0925 -172.08984375 239.625 C-175 238 -175 238 -177.27734375 235.64453125 C-180.9619522 232.06565044 -185.07871239 230.01230616 -189.625 227.6875 C-190.48351562 227.23310547 -191.34203125 226.77871094 -192.2265625 226.31054688 C-196.86795484 223.75470997 -196.86795484 223.75470997 -202 223 C-204.96988429 209.53814746 -201.85135918 197.89948661 -194.6875 186.25 C-193.48350057 184.48259058 -192.25469168 182.73179083 -191 181 C-190.42765625 180.20464844 -189.8553125 179.40929687 -189.265625 178.58984375 C-175.45828678 160.44558519 -158.23647629 147.29079445 -137 139 C-135.68 139 -134.36 139 -133 139 C-132.70867187 139.7734375 -132.41734375 140.546875 -132.1171875 141.34375 C-128.29824018 151.04723879 -124.05161747 157.48202395 -116 164 C-116 164.66 -116 165.32 -116 166 C-116.6290625 166.14695312 -117.258125 166.29390625 -117.90625 166.4453125 C-125.4610946 168.42504587 -131.57733584 171.36600377 -136 178 C-137.20214097 187.46686014 -133.44284667 194.49365619 -127.76171875 201.9296875 C-118.54993863 212.53719188 -109.33432428 219.91076563 -95 221 C-80.60294977 221.81624368 -66.64229048 222.17291312 -53 217 C-51.92878906 216.62617188 -50.85757813 216.25234375 -49.75390625 215.8671875 C-42.02386001 212.9527381 -35.83513634 208.83513634 -30 203 C-29.67698466 200.99288514 -29.67698466 200.99288514 -29.69702148 198.66479492 C-29.67205849 197.31649849 -29.67205849 197.31649849 -29.64659119 195.94096375 C-29.63817703 194.9640004 -29.62976288 193.98703705 -29.62109375 192.98046875 C-29.59560204 191.46614006 -29.59560204 191.46614006 -29.56959534 189.92121887 C-29.51634317 186.67671053 -29.47620479 183.43221187 -29.4375 180.1875 C-29.3790205 175.95173068 -29.31478345 171.71608444 -29.24609375 167.48046875 C-29.23017181 166.46790009 -29.21424988 165.45533142 -29.19784546 164.41207886 C-29.06775696 157.24230596 -28.72814612 150.1372306 -28 143 C-25.69 143 -23.38 143 -21 143 C-22.5778125 141.88625 -22.5778125 141.88625 -24.1875 140.75 C-30.82816734 135.10610626 -33.48938699 125.7674158 -34.23828125 117.30859375 C-34.5307752 105.99369622 -31.67858387 96.44644225 -24 88 C-23.3603833 87.50669189 -22.7207666 87.01338379 -22.06176758 86.50512695 C-19.00278771 82.78834868 -18.43582708 78.84373346 -17.44921875 74.19921875 C-17.22945374 73.22228058 -17.00968872 72.24534241 -16.78326416 71.23880005 C-16.07100689 68.05790169 -15.3793051 64.87290264 -14.6875 61.6875 C-14.20204661 59.50513068 -13.71514305 57.32308344 -13.22680664 55.14135742 C-12.02344403 49.75235306 -10.83529597 44.36013788 -9.65209961 38.9666748 C-8.2445639 32.56320411 -6.81268063 26.16520241 -5.37490845 19.76846313 C-4.94724127 17.85606012 -4.52663786 15.94208179 -4.10620117 14.02807617 C-3.72685425 12.32228394 -3.72685425 12.32228394 -3.33984375 10.58203125 C-3.02067993 9.13147339 -3.02067993 9.13147339 -2.69506836 7.65161133 C-1.99694887 4.98836028 -1.07797689 2.53078988 0 0 Z " fill="#ADA3F6" transform="translate(319,105)"/>
<path d="M0 0 C8.49787184 7.11046419 14.63458801 15.38697019 20 25 C20.61875 26.08796875 21.2375 27.1759375 21.875 28.296875 C23.44311184 33.45857647 22.30974333 36.86472831 21 42 C20.57172947 43.99347336 20.14415731 45.98711794 19.7272644 47.98300171 C18.91960612 51.84670181 18.08252723 55.70409577 17.25 59.5625 C17.07458679 60.37626099 16.89917358 61.19002197 16.71844482 62.02844238 C13.86577077 75.23895135 10.87782519 88.40833023 7.58203125 101.51660156 C7.18734007 103.2006614 6.84235968 104.89700038 6.54296875 106.60058594 C6.39730469 107.41301758 6.25164062 108.22544922 6.1015625 109.0625 C5.98893066 109.78050781 5.87629883 110.49851562 5.76025391 111.23828125 C5 113 5 113 2.95727539 114.08569336 C1.42957031 114.54547497 -0.1146236 114.95253703 -1.66796875 115.31640625 C-5.27138626 116.37268441 -7.30531233 118.44350144 -10 121 C-13.40099973 119.59268977 -15.08956231 118.15007563 -17 115 C-18.80951481 103.40932406 -14.82554819 92.37492861 -10 82 C-11.0832959 82.24121582 -11.0832959 82.24121582 -12.18847656 82.48730469 C-16.69715124 83.30948399 -21.17774822 83.22561466 -25.75 83.25 C-26.70132813 83.270625 -27.65265625 83.29125 -28.6328125 83.3125 C-38.48692151 83.36649512 -46.60854649 81.11411537 -53.8984375 74.19921875 C-59.36228708 68.47369055 -67 59.28425526 -67 51 C-67.66 51 -68.32 51 -69 51 C-69.25652344 51.58652344 -69.51304687 52.17304687 -69.77734375 52.77734375 C-72.58941808 57.88938941 -77.67667446 61.79541029 -83.0625 63.9375 C-95.05575805 67.24029051 -108.0014239 65.3759523 -118.8203125 59.45703125 C-127.45371628 53.82599028 -133.59826551 46.14065675 -136 36 C-137.01990898 27.34835835 -137.19344625 19.48851188 -131.89453125 12.1171875 C-125.85049035 5.36281602 -119.8002211 1.97587002 -111 0 C-110.39953857 -0.17055908 -109.79907715 -0.34111816 -109.18041992 -0.5168457 C-93.80006839 -3.92494286 -76.77864562 -1.13463994 -63 6 C-62.64808594 5.34773438 -62.29617187 4.69546875 -61.93359375 4.0234375 C-57.91259988 -3.09466653 -54.26139966 -8.32587871 -46.5 -11.375 C-29.66105953 -14.45727234 -13.78263057 -9.99098529 0 0 Z " fill="#010101" transform="translate(296,71)"/>
<path d="M0 0 C5.32740939 4.70065534 9.63834528 10.79470357 11.83984375 17.59375 C13.39783771 20.82514488 15.28302831 21.74263271 18.375 23.5 C23.99755709 26.71288977 27.38196002 30.28489637 30.1875 36.125 C30.51105469 36.78757813 30.83460938 37.45015625 31.16796875 38.1328125 C34.43784895 45.4708535 34.19312439 54.82285422 31.4375 62.3125 C26.95301432 71.90867215 18.78760093 81.14159938 10 87 C8.68 87 7.36 87 6 87 C6.61875 88.010625 7.2375 89.02125 7.875 90.0625 C13.25866121 98.85581331 13.81647295 111.2812764 11.48291016 121.19726562 C8.53480102 130.70729509 4.05229857 138.96566297 -4.76171875 144.078125 C-8.88236393 145.77528427 -12.65620287 145.86186451 -17 145 C-24.22340138 141.95922107 -28.2163926 137.13700176 -31.1875 130 C-35.27527299 119.57699318 -35.14371747 109.25106436 -31.2734375 98.765625 C-29.08250337 94.00739996 -26.23816172 89.72619526 -22.06176758 86.50512695 C-19.00278771 82.78834868 -18.43582708 78.84373346 -17.44921875 74.19921875 C-17.22945374 73.22228058 -17.00968872 72.24534241 -16.78326416 71.23880005 C-16.07100689 68.05790169 -15.3793051 64.87290264 -14.6875 61.6875 C-14.20204661 59.50513068 -13.71514305 57.32308344 -13.22680664 55.14135742 C-12.02344403 49.75235306 -10.83529597 44.36013788 -9.65209961 38.9666748 C-8.2445639 32.56320411 -6.81268063 26.16520241 -5.37490845 19.76846313 C-4.94724127 17.85606012 -4.52663786 15.94208179 -4.10620117 14.02807617 C-3.85330322 12.89088135 -3.60040527 11.75368652 -3.33984375 10.58203125 C-3.12706787 9.61499268 -2.91429199 8.6479541 -2.69506836 7.65161133 C-1.99694887 4.98836028 -1.07797689 2.53078988 0 0 Z " fill="#80B8FC" transform="translate(319,105)"/>
<path d="M0 0 C0 4.49095455 -2.37722469 6.31534892 -5.34375 9.52734375 C-18.99952166 22.23926061 -39.79787315 31.19099174 -58.5625 31.25 C-59.696875 31.1675 -60.83125 31.085 -62 31 C-62.04898438 31.63164062 -62.09796875 32.26328125 -62.1484375 32.9140625 C-62.93559118 42.33276348 -64.05858022 51.74358785 -66 61 C-77.30851421 54.15537298 -88.01176047 43.90312789 -92 31 C-92.69951254 27.00992334 -92.88719629 23.65414986 -90.93359375 20.01171875 C-87.40636239 15.52338893 -83.26985615 13.02994459 -78 11 C-77.37222656 10.72800781 -76.74445313 10.45601563 -76.09765625 10.17578125 C-71.73796209 8.63339456 -69.20938084 9.11645465 -64.98828125 10.93359375 C-58.89325363 13.2525688 -53.47804805 13.65610459 -47 13.5625 C-45.37022217 13.54606445 -45.37022217 13.54606445 -43.70751953 13.52929688 C-27.3720452 13.09745881 -13.89335053 8.36923806 0 0 Z " fill="#8759E6" transform="translate(274,261)"/>
<path d="M0 0 C8.06661541 1.86623607 13.4437622 6.79189953 17.80859375 13.65625 C21.8185199 21.54462931 22.33936535 30.21747055 20.34765625 38.81640625 C16.43697539 49.54140655 7.4232604 59.7178264 -2 66 C-8.56603774 65.43396226 -8.56603774 65.43396226 -10 64 C-9.79941492 57.89421151 -8.45785234 51.8537897 -7.1875 45.8984375 C-6.8303886 44.17324755 -6.47362907 42.44798472 -6.1171875 40.72265625 C-5.56180767 38.05654023 -5.00342608 35.3911562 -4.43847656 32.72705078 C-2.12610109 21.78492258 -0.34106097 11.19745796 0 0 Z " fill="#040506" transform="translate(331,126)"/>
<path d="M0 0 C12.62813338 1.14801213 23.72365703 3.1833091 34 11 C36 14 36 14 36.0625 16.6875 C31.68178528 30.34502235 13.98521375 39.59071376 2 46 C1.34 46 0.68 46 0 46 C0 30.82 0 15.64 0 0 Z " fill="#8859E6" transform="translate(290,261)"/>
<path d="M0 0 C0 4.49095455 -2.37722469 6.31534892 -5.34375 9.52734375 C-18.99952166 22.23926061 -39.79787315 31.19099174 -58.5625 31.25 C-59.696875 31.1675 -60.83125 31.085 -62 31 C-61.34 25.39 -60.68 19.78 -60 14 C-58.34355469 13.98582031 -56.68710938 13.97164063 -54.98046875 13.95703125 C-34.30576818 13.596327 -17.78838291 10.71557296 0 0 Z " fill="#0C0606" transform="translate(274,261)"/>
<path d="M0 0 C-0.29614258 1.87939453 -0.29614258 1.87939453 -1 4 C-3.57240656 5.52187885 -5.95374693 6.71584497 -8.6875 7.875 C-9.48913574 8.22087158 -10.29077148 8.56674316 -11.11669922 8.9230957 C-20.8101046 12.95286521 -30.81132194 15.55857861 -41 18 C-42.331521 18.33427002 -42.331521 18.33427002 -43.68994141 18.67529297 C-57.43136805 22.09119829 -71.25154258 23.8708125 -85.3125 25.3125 C-86.15779266 25.39985413 -87.00308533 25.48720825 -87.87399292 25.57720947 C-96.92743002 26.49790545 -105.88691569 27.30906901 -115 27 C-115 25.35 -115 23.7 -115 22 C-111.71070827 21.29483844 -108.50066083 20.80541148 -105.1484375 20.53515625 C-103.76325928 20.42046997 -103.76325928 20.42046997 -102.35009766 20.3034668 C-101.36831543 20.22394775 -100.3865332 20.14442871 -99.375 20.0625 C-97.28638015 19.88372358 -95.19783914 19.70402385 -93.109375 19.5234375 C-90.23016179 19.27559969 -87.35102165 19.02859674 -84.47070312 18.79394531 C-58.92886724 16.6850846 -29.63415562 12.26186516 -6.8671875 -0.1640625 C-4.30545938 -1.31094496 -2.64321673 -0.73422687 0 0 Z " fill="#554886" transform="translate(361,349)"/>
<path d="M0 0 C0.4375 2.0625 0.4375 2.0625 0 5 C-1.3828125 6.5390625 -1.3828125 6.5390625 -3.1875 8.1875 C-10.53636069 15.01569242 -13.9740531 24.74359905 -14.375 34.625 C-14.18315056 45.53301119 -10.75428291 55.02961332 -3.25 62.875 C-2.13625 63.926875 -2.13625 63.926875 -1 65 C-4.2355729 65.58074385 -6.36352535 65.36513546 -9.2265625 63.72265625 C-16.85013451 58.1005906 -20.82200219 52.2182802 -23 43 C-24.32606274 30.11779712 -22.89902338 18.85877033 -15.03515625 8.2734375 C-10.7983723 3.54060015 -6.45977203 0 0 0 Z " fill="#FBAC49" transform="translate(300,184)"/>
<path d="M0 0 C1.57990984 3.15981967 -0.13574694 5.93416898 -1.1875 9.125 C-5.98391851 24.52500152 -8.43274746 40.89002776 -9 57 C-15.36930649 51.14712376 -17.5548297 45.90295814 -18.1953125 37.41015625 C-18.70869256 24.38741537 -14.74261492 13.68051997 -6 4 C-4.03002213 2.32925927 -2.29596688 1.20538261 0 0 Z " fill="#FEB04B" transform="translate(191,166)"/>
<path d="M0 0 C1.98 0.495 1.98 0.495 4 1 C8.92939036 18.27467772 13.39121413 35.66978164 17.375 53.1875 C17.54265869 53.91130859 17.71031738 54.63511719 17.88305664 55.38085938 C18.6835014 58.98135052 19.1863244 62.30934355 19 66 C17.35 66 15.7 66 14 66 C5.13840047 32.01016745 5.13840047 32.01016745 1.50634766 16.19995117 C1.14876069 14.64632718 0.78306839 13.09455807 0.41162109 11.54418945 C0.22422363 10.74456787 0.03682617 9.94494629 -0.15625 9.12109375 C-0.32705078 8.4036499 -0.49785156 7.68620605 -0.67382812 6.94702148 C-1.09409486 4.43831851 -0.77716174 2.4092014 0 0 Z " fill="#544586" transform="translate(229,396)"/>
<path d="M0 0 C2.475 0.495 2.475 0.495 5 1 C3.70028749 4.41481963 2.21739533 7.56763134 0.41796875 10.74609375 C-0.09572266 11.65544678 -0.60941406 12.5647998 -1.13867188 13.50170898 C-1.69103516 14.47052002 -2.24339844 15.43933105 -2.8125 16.4375 C-3.38419922 17.44433838 -3.95589844 18.45117676 -4.54492188 19.48852539 C-12.12722955 32.7958897 -19.83199925 46.04230763 -28 59 C-29.65 58.67 -31.3 58.34 -33 58 C-32.3706649 55.00061569 -31.39419917 52.65608331 -29.875 50 C-29.42374756 49.20851563 -28.97249512 48.41703125 -28.50756836 47.6015625 C-28.0100708 46.74304688 -27.51257324 45.88453125 -27 45 C-26.48252197 44.10023438 -25.96504395 43.20046875 -25.43188477 42.2734375 C-18.71482095 30.67079212 -11.70896623 19.23904889 -4.71069336 7.8046875 C-3.12825389 5.21027269 -1.55986543 2.60803528 0 0 Z " fill="#534584" transform="translate(171,388)"/>
<path d="M0 0 C2.6875 -0.3125 2.6875 -0.3125 5 0 C4.53341459 4.66585411 3.11993472 8.09997463 0.9375 12.16796875 C-0.65551054 15.28097684 -1.1220464 17.79145752 -1.09765625 21.23046875 C-1.09443359 22.03291016 -1.09121094 22.83535156 -1.08789062 23.66210938 C-1.07951172 24.49548828 -1.07113281 25.32886719 -1.0625 26.1875 C-1.05798828 27.03248047 -1.05347656 27.87746094 -1.04882812 28.74804688 C-1.03705403 30.83206155 -1.0191189 32.91603977 -1 35 C-2.98 35.495 -2.98 35.495 -5 36 C-9.02633768 30.17466038 -8.82152563 24.87368231 -8 18 C-6.18907749 11.6721788 -3.79143059 5.42056093 0 0 Z " fill="#190D0A" transform="translate(213,185)"/>
<path d="M0 0 C5.07718939 1.97175665 9.85345047 4.37601132 14.6875 6.875 C15.55439453 7.30941406 16.42128906 7.74382812 17.31445312 8.19140625 C18.55678711 8.83529297 18.55678711 8.83529297 19.82421875 9.4921875 C20.57791748 9.87745605 21.33161621 10.26272461 22.1081543 10.65966797 C24.29101636 12.20617884 25.01545675 13.54433383 26 16 C21.93500488 17.1568526 19.94510895 16.90548265 16.20703125 14.98046875 C15.32982422 14.53509766 14.45261719 14.08972656 13.54882812 13.63085938 C12.64583984 13.15455078 11.74285156 12.67824219 10.8125 12.1875 C9.89791016 11.72279297 8.98332031 11.25808594 8.04101562 10.77929688 C1.32425437 7.32425437 1.32425437 7.32425437 -1 5 C-0.625 2.375 -0.625 2.375 0 0 Z " fill="#544785" transform="translate(118,327)"/>
<path d="M0 0 C1.32 0 2.64 0 4 0 C4.4375 2.0625 4.4375 2.0625 4 5 C0.19201108 10.32186831 -4.60286398 13.66473442 -11 15 C-13.8123483 15.30752309 -16.14751449 15.24590392 -19 15 C-19.66 14.34 -20.32 13.68 -21 13 C-20.625 10.875 -20.625 10.875 -20 9 C-19.27554688 8.97421875 -18.55109375 8.9484375 -17.8046875 8.921875 C-11.788587 8.56893044 -7.70171197 8.11399798 -3 4 C-2.46375 3.2575 -1.9275 2.515 -1.375 1.75 C-0.92125 1.1725 -0.4675 0.595 0 0 Z " fill="#120907" transform="translate(241,227)"/>
<path d="M0 0 C3.375 1.6875 3.375 1.6875 6 4 C6.875 6.75 6.875 6.75 7 9 C5.1875 9.6875 5.1875 9.6875 3 10 C2.566875 9.525625 2.13375 9.05125 1.6875 8.5625 C-0.04794916 6.63618961 -0.04794916 6.63618961 -3.5 6.6875 C-7.1112507 6.72857913 -7.1112507 6.72857913 -10 9 C-12.6875 9.125 -12.6875 9.125 -15 9 C-14.9375 6.75 -14.9375 6.75 -14 4 C-9.31441578 0.53266768 -5.94338127 -0.86449182 0 0 Z " fill="#160B09" transform="translate(211,148)"/>
<path d="M0 0 C6.96515961 -0.44616681 11.60967983 -0.69925348 17 4 C19 6 19 6 19.125 8.625 C19.08375 9.40875 19.0425 10.1925 19 11 C15.25418786 10.49380917 13.48705839 9.84235245 11 7 C8.56612247 5.78306124 6.58161154 5.68040104 3.875 5.4375 C2.96492187 5.35371094 2.05484375 5.26992187 1.1171875 5.18359375 C0.41851562 5.12300781 -0.28015625 5.06242188 -1 5 C-0.67 3.35 -0.34 1.7 0 0 Z " fill="#0E0705" transform="translate(239,155)"/>
<path d="M0 0 C0.99 0 1.98 0 3 0 C3.82011312 1.55851755 4.63076213 3.12201716 5.4375 4.6875 C6.11619141 5.99267578 6.11619141 5.99267578 6.80859375 7.32421875 C10.7629346 16.20527935 9.96099456 26.34093216 6.625 35.25 C4.34285714 40.82857143 4.34285714 40.82857143 2 42 C2.32484375 41.23042969 2.32484375 41.23042969 2.65625 40.4453125 C6.3643842 30.24794346 7.01910127 16.85908032 2.80078125 6.703125 C2.53652344 6.14109375 2.27226562 5.5790625 2 5 C1.608125 3.989375 1.21625 2.97875 0.8125 1.9375 C0.544375 1.298125 0.27625 0.65875 0 0 Z " fill="#EB9387" transform="translate(325,192)"/>
<path d="M0 0 C1.32 0 2.64 0 4 0 C3.8595017 2.7920301 3.71284617 5.58349796 3.5625 8.375 C3.50352539 9.56609375 3.50352539 9.56609375 3.44335938 10.78125 C3.11328125 16.7734375 3.11328125 16.7734375 2 19 C0.35 18.67 -1.3 18.34 -3 18 C-2.22095672 5.33029613 -2.22095672 5.33029613 0 0 Z " fill="#140A08" transform="translate(243,174)"/>
<path d="M0 0 C1.65 0 3.3 0 5 0 C4.58955515 6.57791873 4.13391403 12.74051886 2 19 C0.68 18.67 -0.64 18.34 -2 18 C-2.23268915 11.71739294 -1.40454548 6.11980533 0 0 Z " fill="#120907" transform="translate(201,171)"/>
<path d="M0 0 C0.99 0 1.98 0 3 0 C3.66 1.98 4.32 3.96 5 6 C4.01 6.495 4.01 6.495 3 7 C0 2.25 0 2.25 0 0 Z " fill="#E18575" transform="translate(325,192)"/>
</svg>
