<?xml version="1.0" encoding="UTF-8"?>
<svg version="1.1" xmlns="http://www.w3.org/2000/svg" width="500" height="500">
<path d="M0 0 C3.17298081 2.85141078 6.23182458 5.81054371 9.2734375 8.80078125 C9.85174316 9.36007324 10.43004883 9.91936523 11.02587891 10.49560547 C18.64509931 17.86674877 25.82970018 25.35845161 32.2734375 33.80078125 C32.68094238 34.32655762 33.08844727 34.85233398 33.50830078 35.39404297 C56.96343908 65.77210229 73.06789274 100.32056742 81.2734375 137.80078125 C81.59103027 139.21302979 81.59103027 139.21302979 81.91503906 140.65380859 C88.6619857 172.15916244 88.47033786 209.40545843 81.2734375 240.80078125 C81.03206055 241.86619141 80.79068359 242.93160156 80.54199219 244.02929688 C71.96223005 280.70103493 56.29979887 315.61205145 32.2734375 344.80078125 C31.50644531 345.77015625 30.73945313 346.73953125 29.94921875 347.73828125 C17.22906773 363.39385173 2.64771871 377.99468719 -13.7265625 389.80078125 C-14.82676572 390.62855632 -15.92570906 391.45800837 -17.0234375 392.2890625 C-42.41274209 411.26469259 -72.05119964 424.71713101 -102.6640625 432.55078125 C-103.75807373 432.83276367 -104.85208496 433.11474609 -105.97924805 433.40527344 C-124.37215441 437.91031773 -142.15034686 439.29060625 -161.0625 439.19189453 C-164.72173323 439.17580249 -168.37986235 439.19183836 -172.0390625 439.2109375 C-185.86878183 439.22395456 -199.14744529 438.46774552 -212.7265625 435.80078125 C-213.89155273 435.57648438 -215.05654297 435.3521875 -216.25683594 435.12109375 C-219.22221542 434.5081434 -222.16079908 433.83453872 -225.1015625 433.11328125 C-226.14481689 432.85836914 -227.18807129 432.60345703 -228.26293945 432.34082031 C-261.56824643 423.90041703 -292.90308139 408.19999324 -319.7265625 386.80078125 C-320.68304688 386.05570312 -321.63953125 385.310625 -322.625 384.54296875 C-373.14043685 344.39726967 -406.26529413 284.76584864 -414.25927734 220.73339844 C-414.85108471 215.25195583 -414.90684788 209.79426685 -414.9296875 204.28515625 C-414.93538757 203.19350159 -414.94108765 202.10184692 -414.94696045 200.97711182 C-414.95636799 198.67094884 -414.96292745 196.36477267 -414.96679688 194.05859375 C-414.97641821 190.60261173 -415.00744818 187.14724698 -415.0390625 183.69140625 C-415.12671699 165.51781668 -413.43050204 148.08974071 -409.0390625 130.42578125 C-408.7827002 129.38744141 -408.52633789 128.34910156 -408.26220703 127.27929688 C-398.13456663 87.53990598 -378.38663515 51.07817718 -350.609375 20.9296875 C-348.59120585 18.74476389 -348.59120585 18.74476389 -346.7265625 15.80078125 C-346.0665625 15.80078125 -345.4065625 15.80078125 -344.7265625 15.80078125 C-344.51386719 15.25421875 -344.30117188 14.70765625 -344.08203125 14.14453125 C-342.24697929 10.97153074 -339.73259249 8.7311594 -337.0390625 6.30078125 C-336.46091797 5.77597168 -335.88277344 5.25116211 -335.28710938 4.71044922 C-264.04189605 -59.26133799 -165.30406039 -77.96133416 0 0 Z " fill="#F6F4FE" transform="translate(414.7265625,61.19921875)"/>
<path d="M0 0 C13.98837481 9.37839635 29.53280789 23.9427972 33.71875 40.9140625 C33.8115625 41.60242188 33.904375 42.29078125 34 43 C35.299375 42.87625 36.59875 42.7525 37.9375 42.625 C42.90966621 42.64070985 45.94384404 44.25409293 50.0546875 46.90625 C55.18381002 52.42675135 55.45691703 59.302255 55.3125 66.5 C55.31733398 67.70462891 55.31733398 67.70462891 55.32226562 68.93359375 C55.27463879 74.27645866 54.39279197 78.850554 53 84 C53 89.76728058 54.93717521 92.75606499 58.52734375 97.0078125 C62.17874457 101.94737329 62.31168872 106.52052334 62.25 112.4375 C62.25773437 113.17548828 62.26546875 113.91347656 62.2734375 114.67382812 C62.2429329 123.25324764 59.3485778 130.50715658 53.3515625 136.703125 C45.40706985 143.34029608 35.15492018 145.68846916 25 145 C24.91105469 146.30839844 24.82210937 147.61679688 24.73046875 148.96484375 C24.16348623 154.02216947 22.557428 158.03380442 20.3125 162.5625 C19.95744385 163.31281494 19.6023877 164.06312988 19.23657227 164.83618164 C17.34289591 168.72423019 15.48938842 171.82829913 12.4375 174.9375 C10.32932465 177.91856416 9.70188656 179.83349331 9.85546875 183.47265625 C9.88777588 184.29451416 9.92008301 185.11637207 9.95336914 185.96313477 C10.20332851 189.65776886 10.5677625 193.32205179 11 197 C12.03060547 197.12955078 12.03060547 197.12955078 13.08203125 197.26171875 C20.50655562 198.4194772 20.50655562 198.4194772 23.125 201.5 C24 204 24 204 24 206 C24.59578857 205.85925049 25.19157715 205.71850098 25.80541992 205.57348633 C35.86688437 203.53750463 45.92226874 203.66296141 56.1496582 203.68432617 C59.26745651 203.6874548 62.3842737 203.66407903 65.50195312 203.63867188 C79.55232584 203.59403027 93.12966817 204.79321001 107 207 C108.94531616 207.30611206 108.94531616 207.30611206 110.92993164 207.6184082 C114.08702219 208.14470523 117.23105878 208.7130014 120.375 209.3125 C121.49092529 209.52342285 122.60685059 209.7343457 123.7565918 209.95166016 C141.45939443 213.37076876 158.75689767 217.68343625 175.87890625 223.33203125 C181.36465417 225.14062185 186.89775867 226.76213541 192.4609375 228.31469727 C196.83277793 229.56131996 200.85170833 231.17047087 205 233 C206.32276056 233.37308631 207.65232077 233.73046415 209 234 C208.44116486 240.18255582 207.04012216 245.54638656 204.9375 251.375 C204.62659424 252.24568115 204.31568848 253.1163623 203.99536133 254.01342773 C194.48070105 280.17222335 181.19851493 304.1295625 164 326 C163.25105469 326.95519531 162.50210937 327.91039062 161.73046875 328.89453125 C148.96889587 344.55006712 134.39690326 359.17759511 118 371 C116.89979678 371.82777507 115.80085344 372.65722712 114.703125 373.48828125 C89.31382041 392.46391134 59.67536286 405.91634976 29.0625 413.75 C27.96848877 414.03198242 26.87447754 414.31396484 25.74731445 414.60449219 C7.35440809 419.10953648 -10.42378436 420.489825 -29.3359375 420.39111328 C-32.99517073 420.37502124 -36.65329985 420.39105711 -40.3125 420.41015625 C-54.14221933 420.42317331 -67.42088279 419.66696427 -81 417 C-82.16499023 416.77570313 -83.32998047 416.55140625 -84.53027344 416.3203125 C-87.49565292 415.70736215 -90.43423658 415.03375747 -93.375 414.3125 C-94.41825439 414.05758789 -95.46150879 413.80267578 -96.53637695 413.54003906 C-129.84168393 405.09963578 -161.17651889 389.39921199 -188 368 C-188.95648438 367.25492187 -189.91296875 366.50984375 -190.8984375 365.7421875 C-221.83503807 341.15620875 -221.83503807 341.15620875 -227 329 C-222.22393276 322.98569311 -217.39714039 317.2243581 -211.87890625 311.87890625 C-210.07548125 310.07548125 -208.44723502 308.20605886 -206.8125 306.25 C-201.70407295 300.33254604 -195.82084978 295.19776832 -190 290 C-189.17387207 289.2567749 -189.17387207 289.2567749 -188.33105469 288.49853516 C-172.86922019 274.65054678 -155.98279514 263.30843648 -138 253 C-137.0409375 252.43804932 -137.0409375 252.43804932 -136.0625 251.86474609 C-119.73778556 242.32857108 -96.31290669 230 -77 230 C-75.97616089 231.14920716 -75.00615653 232.34659048 -74.0625 233.5625 C-66.10229687 242.83572633 -55.00914331 247.99134273 -42.9296875 249.34375 C-35.61938974 249.57279327 -28.97752972 248.07841311 -22 246 C-21.67 244.68 -21.34 243.36 -21 242 C-21.53625 242.144375 -22.0725 242.28875 -22.625 242.4375 C-35.04702943 245.3795596 -48.60027313 245.71231361 -59.9453125 239.34765625 C-68.33369906 234.1678823 -68.33369906 234.1678823 -71 231 C-71 230.34 -71 229.68 -71 229 C-72.32 228.34 -73.64 227.68 -75 227 C-75.21742047 224.59931566 -75.37467466 222.21829891 -75.5 219.8125 C-75.56703125 219.13896484 -75.6340625 218.46542969 -75.703125 217.77148438 C-75.78125 215.76953125 -75.78125 215.76953125 -75 212 C-72.36 210.35 -69.72 208.7 -67 207 C-67.33 199.41 -67.66 191.82 -68 184 C-69.32 183.34 -70.64 182.68 -72 182 C-80.44590318 173.88496726 -85.8095687 162.13891004 -88.125 150.75 C-88.63199496 148.63694797 -88.63199496 148.63694797 -90 147 C-93.18458723 145.61093039 -96.33336587 144.77619561 -99.703125 143.9375 C-107.36551684 141.7586208 -111.60126153 136.78405665 -115.7734375 130.24609375 C-118.56163341 125.14032098 -119.33960149 120.92471787 -119.3125 115.125 C-119.32861328 114.44308594 -119.34472656 113.76117188 -119.36132812 113.05859375 C-119.36683398 107.27745068 -118.19637165 102.62181894 -114.38671875 98.07421875 C-109.41946312 94.0204814 -105.34788475 91.89386785 -98.80859375 91.9609375 C-96.92333984 91.98027344 -96.92333984 91.98027344 -95 92 C-95.35191406 91.35264893 -95.70382813 90.70529785 -96.06640625 90.03833008 C-102.15163349 78.776489 -108.13385808 67.54443544 -112.6875 55.5625 C-113.15833008 54.33333862 -113.15833008 54.33333862 -113.63867188 53.0793457 C-117.32701042 42.99107969 -121.02192887 29.93504604 -116.4375 19.625 C-112.86633682 13.5552845 -107.40395555 9.70906726 -101 7 C-91.27503091 5.69023985 -83.44760935 7.08247273 -75 12 C-75.04125 10.989375 -75.0825 9.97875 -75.125 8.9375 C-74.89521904 1.69939963 -73.04474155 -2.99393198 -68.08203125 -8.19921875 C-50.23913996 -23.63181328 -17.28909451 -10.40386 0 0 Z " fill="#8758E7" transform="translate(283,80)"/>
<path d="M0 0 C13.98837481 9.37839635 29.53280789 23.9427972 33.71875 40.9140625 C33.8115625 41.60242188 33.904375 42.29078125 34 43 C35.299375 42.87625 36.59875 42.7525 37.9375 42.625 C42.90966621 42.64070985 45.94384404 44.25409293 50.0546875 46.90625 C55.18381002 52.42675135 55.45691703 59.302255 55.3125 66.5 C55.31572266 67.30308594 55.31894531 68.10617188 55.32226562 68.93359375 C55.27463879 74.27645866 54.39279197 78.850554 53 84 C53 89.76728058 54.93717521 92.75606499 58.52734375 97.0078125 C62.17874457 101.94737329 62.31168872 106.52052334 62.25 112.4375 C62.25773438 113.17548828 62.26546875 113.91347656 62.2734375 114.67382812 C62.2429329 123.25324764 59.3485778 130.50715658 53.3515625 136.703125 C45.40706985 143.34029608 35.15492018 145.68846916 25 145 C24.91105469 146.30839844 24.82210937 147.61679688 24.73046875 148.96484375 C24.16334245 154.02345195 22.55503267 158.03149824 20.3125 162.5625 C19.98572266 163.26568359 19.65894531 163.96886719 19.32226562 164.69335938 C17.4637056 168.55617916 15.49121644 171.65357546 12.68359375 174.8984375 C10.22218403 178.05855996 9.65511566 179.91532348 9.984375 183.91015625 C10.22427678 185.62980906 10.47985398 187.34733827 10.75 189.0625 C11.63161044 197.96716804 11.63161044 197.96716804 9.42578125 201.57421875 C6.71568066 203.49592644 4.06513124 204.7134467 1 206 C-0.29981978 206.68639901 -1.5924771 207.38647759 -2.87890625 208.09765625 C-17.6743774 216.15890554 -32.59658822 218.6810905 -49.20703125 213.99609375 C-52.93227963 212.66750866 -56.38113159 210.99037763 -59.84375 209.0859375 C-61.91359996 208.04351306 -63.75493634 207.52012601 -66 207 C-66.33576553 203.72941155 -66.6681927 200.45849221 -67 197.1875 C-67.09539062 196.25873047 -67.19078125 195.32996094 -67.2890625 194.37304688 C-67.37929687 193.48037109 -67.46953125 192.58769531 -67.5625 191.66796875 C-67.64628906 190.84578857 -67.73007813 190.0236084 -67.81640625 189.17651367 C-68 187 -68 187 -68 184 C-68.58136719 183.75507813 -69.16273438 183.51015625 -69.76171875 183.2578125 C-79.03149343 178.04861975 -83.610673 165.58121824 -87 156 C-87.3899981 154.25328122 -87.76843245 152.50384851 -88.125 150.75 C-88.63199496 148.63694797 -88.63199496 148.63694797 -90 147 C-93.18458723 145.61093039 -96.33336587 144.77619561 -99.703125 143.9375 C-107.36551684 141.7586208 -111.60126153 136.78405665 -115.7734375 130.24609375 C-118.56163341 125.14032098 -119.33960149 120.92471787 -119.3125 115.125 C-119.32861328 114.44308594 -119.34472656 113.76117188 -119.36132812 113.05859375 C-119.36683398 107.27745068 -118.19637165 102.62181894 -114.38671875 98.07421875 C-109.41946312 94.0204814 -105.34788475 91.89386785 -98.80859375 91.9609375 C-96.92333984 91.98027344 -96.92333984 91.98027344 -95 92 C-95.35191406 91.35264893 -95.70382813 90.70529785 -96.06640625 90.03833008 C-102.15163349 78.776489 -108.13385808 67.54443544 -112.6875 55.5625 C-113.00138672 54.74305908 -113.31527344 53.92361816 -113.63867188 53.0793457 C-117.32701042 42.99107969 -121.02192887 29.93504604 -116.4375 19.625 C-112.86633682 13.5552845 -107.40395555 9.70906726 -101 7 C-91.27503091 5.69023985 -83.44760935 7.08247273 -75 12 C-75.04125 10.989375 -75.0825 9.97875 -75.125 8.9375 C-74.89521904 1.69939963 -73.04474155 -2.99393198 -68.08203125 -8.19921875 C-50.23913996 -23.63181328 -17.28909451 -10.40386 0 0 Z " fill="#F98F7D" transform="translate(283,80)"/>
<path d="M0 0 C13.98837481 9.37839635 29.53280789 23.9427972 33.71875 40.9140625 C33.8115625 41.60242188 33.904375 42.29078125 34 43 C35.299375 42.87625 36.59875 42.7525 37.9375 42.625 C42.90966621 42.64070985 45.94384404 44.25409293 50.0546875 46.90625 C55.09229194 52.32824996 55.4962419 59.16240036 55.375 66.25 C55.36629883 67.48810425 55.36629883 67.48810425 55.35742188 68.7512207 C55.2162819 75.44948871 54.13528887 81.63226355 52 88 C51.2575 87.67 50.515 87.34 49.75 87 C42.59133785 85.09102343 33.80011531 84.61366705 26.96875 87.91796875 C22.4695935 92.67600529 21.28167829 100.07986026 19.74853516 106.29760742 C19.37801025 107.14029175 19.37801025 107.14029175 19 108 C18.01 108.33 17.02 108.66 16 109 C14.27539983 105.55079966 14.81537023 101.67518663 14.8125 97.875 C14.80025391 97.04484375 14.78800781 96.2146875 14.77539062 95.359375 C14.76255383 89.89945895 15.46831605 85.24283914 17 80 C15.27910156 80.05800781 15.27910156 80.05800781 13.5234375 80.1171875 C9.00660966 80.11520383 4.98313428 79.23037335 0.625 78.125 C-8.52182298 75.93439868 -17.6437233 74.84051658 -27 74 C-27.33 72.68 -27.66 71.36 -28 70 C-26.35 69.67 -24.7 69.34 -23 69 C-23 68.34 -23 67.68 -23 67 C-23.680625 66.79375 -24.36125 66.5875 -25.0625 66.375 C-36.34460793 61.09401331 -43.59543337 48.754816 -49 38 C-62.11453335 38.319159 -74.22644151 44.04818997 -83.375 53.4375 C-90.61412032 64.85303589 -93.5000102 77.57527386 -94 91 C-103.14923238 82.58436218 -108.20543016 67.19015245 -112.5625 55.8125 C-112.88436279 54.97734863 -113.20622559 54.14219727 -113.5378418 53.28173828 C-117.27957403 43.13730672 -121.05908564 30.0186089 -116.4375 19.625 C-112.86633682 13.5552845 -107.40395555 9.70906726 -101 7 C-91.27503091 5.69023985 -83.44760935 7.08247273 -75 12 C-75.04125 10.989375 -75.0825 9.97875 -75.125 8.9375 C-74.89521904 1.69939963 -73.04474155 -2.99393198 -68.08203125 -8.19921875 C-50.23913996 -23.63181328 -17.28909451 -10.40386 0 0 Z " fill="#020202" transform="translate(283,80)"/>
<path d="M0 0 C0.495 0.99 0.495 0.99 1 2 C-3.58675651 12.15227697 -11.13393916 20.83897237 -21 26 C-21.61359375 26.35191406 -22.2271875 26.70382812 -22.859375 27.06640625 C-30.34021935 30.32903727 -41.30588215 30.47880052 -48.98828125 28.05859375 C-51.4705985 26.85698646 -53.71885953 25.54668236 -56 24 C-57.010625 23.319375 -58.02125 22.63875 -59.0625 21.9375 C-64.12516385 17.39856 -70.99966538 9.83835306 -72 3 C-70.65808594 3.81404297 -70.65808594 3.81404297 -69.2890625 4.64453125 C-55.45004722 12.90869717 -42.17587077 16.72789022 -25.88378906 13.59277344 C-16.30142008 11.08735807 -7.80351608 5.96739465 0 0 Z " fill="#090504" transform="translate(288,263)"/>
<path d="M0 0 C1.65 0.33 3.3 0.66 5 1 C7.43577149 14.8972442 7.43577149 14.8972442 4.40234375 19.33984375 C1.70423973 21.25419134 -0.99562649 22.61034329 -4 24 C-5.29699422 24.69698758 -6.5897677 25.40186892 -7.87890625 26.11328125 C-22.69709293 34.13728858 -37.58430727 36.68455436 -54.20703125 31.99609375 C-57.93227963 30.66750866 -61.38113159 28.99037763 -64.84375 27.0859375 C-66.90401116 26.0483422 -68.74824432 25.46058639 -71 25 C-71.84023188 20.64667264 -72.10770995 16.55557481 -72.0625 12.125 C-72.05347656 10.97257812 -72.04445312 9.82015625 -72.03515625 8.6328125 C-72.02355469 7.76398438 -72.01195312 6.89515625 -72 6 C-69.9565374 8.53371035 -67.94234886 11.07705512 -65.9921875 13.68359375 C-60.42142364 20.92969804 -54.77254523 26.07581826 -46 29 C-43.58559827 29.12185361 -41.16744474 29.17546093 -38.75 29.1875 C-36.82414062 29.20876953 -36.82414062 29.20876953 -34.859375 29.23046875 C-24.89033766 28.63515174 -15.83427667 24.23448206 -9 17 C-2.61825977 9.34166249 -2.61825977 9.34166249 0 0 Z " fill="#F28C7F" transform="translate(288,262)"/>
<path d="M0 0 C2.3125 0.1875 2.3125 0.1875 4 1 C3.53917014 5.64944408 1.86948806 7.54726508 -1.5 10.6875 C-4.67196677 13.5285757 -4.67196677 13.5285757 -7 17 C-6.29875 17.2475 -5.5975 17.495 -4.875 17.75 C-1.62997541 19.16088026 1.10316737 20.97895398 4 23 C3.67 24.65 3.34 26.3 3 28 C-0.21228716 27.38472896 -2.28255491 26.25711949 -4.9375 24.375 C-8.09403451 22.33078679 -8.09403451 22.33078679 -11.8125 22 C-14.06386195 22.8672482 -14.06386195 22.8672482 -15.5625 24.625 C-16.2740625 25.305625 -16.2740625 25.305625 -17 26 C-19.1875 25.6875 -19.1875 25.6875 -21 25 C-20.41172909 21.53121364 -19.21291334 19.80817177 -16.796875 17.28515625 C-16.14589844 16.59873047 -15.49492187 15.91230469 -14.82421875 15.20507812 C-14.13972656 14.49802734 -13.45523437 13.79097656 -12.75 13.0625 C-11.74646484 12.00772461 -11.74646484 12.00772461 -10.72265625 10.93164062 C-9.41887036 9.56509883 -8.10939196 8.20396067 -6.79370117 6.84887695 C-5.67978522 5.70069599 -4.57410743 4.54438603 -3.48168945 3.37573242 C-2.36843755 2.203661 -1.19044938 1.09357737 0 0 Z " fill="#120A09" transform="translate(329,175)"/>
<path d="M0 0 C1.67542976 0.28604898 3.34385343 0.61781233 5 1 C4.83886719 1.92296875 4.67773438 2.8459375 4.51171875 3.796875 C3.78220577 8.9357452 3.81587781 14.06844602 3.8125 19.25 C3.80025391 20.22324219 3.78800781 21.19648438 3.77539062 22.19921875 C3.76184074 29.00126217 4.5632883 35.35449612 6 42 C3.525 42.495 3.525 42.495 1 43 C0.51891725 41.58398286 0.04021859 40.16715563 -0.4375 38.75 C-0.70433594 37.96109375 -0.97117188 37.1721875 -1.24609375 36.359375 C-1.49488281 35.58078125 -1.74367187 34.8021875 -2 34 C-2.19335938 33.40703125 -2.38671875 32.8140625 -2.5859375 32.203125 C-3.22235048 28.81692765 -3.19091187 25.43309498 -3.1875 22 C-3.18741943 21.24976563 -3.18733887 20.49953125 -3.18725586 19.7265625 C-3.01796008 3.01796008 -3.01796008 3.01796008 0 0 Z " fill="#180D0C" transform="translate(239,175)"/>
<path d="M0 0 C3.80210429 0.19724691 4.89291949 0.88466984 7.53515625 3.73046875 C8.39141472 4.87258785 9.23353867 6.02541665 10.0625 7.1875 C10.48337891 7.75275391 10.90425781 8.31800781 11.33789062 8.90039062 C12.58221435 10.58456832 13.79361194 12.28850833 15 14 C15.75667969 15.05058594 16.51335937 16.10117188 17.29296875 17.18359375 C19.40131604 20.66212555 19.31973613 23.00329832 19 27 C18.01 27 17.02 27 16 27 C13 23.66666667 13 23.66666667 13 21 C6.565 21.495 6.565 21.495 0 22 C-0.33 20.68 -0.66 19.36 -1 18 C1 16 1 16 4.625 15.875 C6.295625 15.936875 6.295625 15.936875 8 16 C7.13375 14.77023438 7.13375 14.77023438 6.25 13.515625 C5.5075 12.43796875 4.765 11.3603125 4 10.25 C3.2575 9.18265625 2.515 8.1153125 1.75 7.015625 C0 4 0 4 0 0 Z " fill="#100908" transform="translate(171,183)"/>
<path d="M0 0 C2.475 0.495 2.475 0.495 5 1 C4.67914711 6.29407263 1.79425806 9.57292821 -2 13 C-4.57192485 14.59943119 -7.21956958 15.81240725 -10 17 C-10.66257813 17.36222656 -11.32515625 17.72445312 -12.0078125 18.09765625 C-14.98526467 19.44626694 -17.78179043 19.12377729 -21 19 C-21.625 17.125 -21.625 17.125 -22 15 C-19.55201316 12.55201316 -17.37258207 12.33200075 -14.0859375 11.54296875 C-6.99327687 9.69675184 -3.923046 5.85674598 0 0 Z " fill="#180D0C" transform="translate(265,223)"/>
<path d="M0 0 C0.33 1.32 0.66 2.64 1 4 C0.12988281 4.25523437 0.12988281 4.25523437 -0.7578125 4.515625 C-4.62850306 5.71643329 -8.03386076 6.82262699 -11.3125 9.25 C-14 11 -14 11 -16.375 10.75 C-16.91125 10.5025 -17.4475 10.255 -18 10 C-17.7890625 7.67578125 -17.7890625 7.67578125 -17 5 C-11.89041821 1.0356693 -6.37397337 -0.69282319 0 0 Z " fill="#140B0A" transform="translate(221,146)"/>
<path d="M0 0 C2.475 0.495 2.475 0.495 5 1 C5 6.61 5 12.22 5 18 C3.68 18.33 2.36 18.66 1 19 C0 18 0 18 -0.11352539 16.23413086 C-0.10828857 15.48526611 -0.10305176 14.73640137 -0.09765625 13.96484375 C-0.09443359 13.15595703 -0.09121094 12.34707031 -0.08789062 11.51367188 C-0.07951172 10.66353516 -0.07113281 9.81339844 -0.0625 8.9375 C-0.05798828 8.08349609 -0.05347656 7.22949219 -0.04882812 6.34960938 C-0.03700373 4.23304337 -0.01906769 2.11651315 0 0 Z " fill="#0D0706" transform="translate(212,166)"/>
<path d="M0 0 C1.98 0.495 1.98 0.495 4 1 C4 6.61 4 12.22 4 18 C2.68 18.33 1.36 18.66 0 19 C-1.8855253 17.1144747 -1.13246689 14.42231169 -1.13671875 11.91796875 C-1.13285156 11.12003906 -1.12898438 10.32210937 -1.125 9.5 C-1.12886719 8.70207031 -1.13273437 7.90414062 -1.13671875 7.08203125 C-1.12660767 1.12660767 -1.12660767 1.12660767 0 0 Z " fill="#0D0706" transform="translate(265,164)"/>
</svg>
